<svg width="404" height="58" viewBox="0 0 404 58" fill="none" xmlns="http://www.w3.org/2000/svg">
<path d="M31.5572 36.1341C31.5572 36.8156 31.3739 37.5225 31.0072 38.2548C30.6405 38.9871 30.1872 39.7194 29.6474 40.4517C29.1075 41.184 28.5218 41.8808 27.8903 42.5419C27.2486 43.203 26.6629 43.7776 26.1332 44.2658C24.809 45.4355 23.4492 46.5441 22.0537 47.5918C20.6583 48.6394 19.217 49.5802 17.7298 50.4142C16.2427 51.2381 14.6893 51.8941 13.0697 52.3823C11.4604 52.8705 9.77459 53.1146 8.01242 53.1146C2.68517 53.1146 0.0215454 50.3837 0.0215454 44.9219C0.0215454 44.3828 0.240543 43.3301 0.678539 41.7638C1.11653 40.2076 1.67676 38.4277 2.35922 36.424C3.05186 34.4203 3.86165 32.32 4.78857 30.1231C5.71549 27.9262 6.66787 25.9123 7.64572 24.0815C8.62357 22.2508 9.59124 20.7505 10.5487 19.5809C11.496 18.4112 12.3873 17.8264 13.2225 17.8264C13.7624 17.8264 14.1647 17.9942 14.4296 18.3299C14.6944 18.6757 14.8268 19.0418 14.8268 19.4283C14.7861 19.7233 14.4448 20.3488 13.8031 21.3049C13.1716 22.2508 12.5146 23.2119 11.8321 24.1883C11.7303 24.3409 11.5571 24.585 11.3127 24.9206C11.0682 25.2665 10.8237 25.6123 10.5793 25.9581C10.2839 26.3446 9.98849 26.7565 9.6931 27.1939C9.49957 27.5397 9.07176 28.4093 8.40967 29.8027C7.75777 31.186 7.06512 32.793 6.33174 34.6238C5.59835 36.4545 4.93626 38.3616 4.34548 40.3449C3.75469 42.3181 3.4593 44.037 3.4593 45.5016C3.4593 46.3356 3.64265 46.9967 4.00934 47.485C4.37604 47.9732 4.81913 48.3393 5.33861 48.5834C5.84791 48.8275 6.38267 48.9852 6.94289 49.0564C7.51331 49.1276 8.01751 49.1632 8.45551 49.1632C10.2584 49.1632 12.1785 48.7614 14.2157 47.9579C16.2427 47.1544 18.1831 46.0915 20.0369 44.7693C21.901 43.4573 23.6122 41.9316 25.1706 40.1924C26.7393 38.4633 27.9616 36.6681 28.8376 34.8068C29.0311 34.4712 29.2399 34.2525 29.464 34.1508C29.6881 34.0593 29.8969 34.0135 30.0905 34.0135C30.4775 34.0135 30.8187 34.2779 31.1141 34.8068C31.4095 35.3459 31.5572 35.7883 31.5572 36.1341ZM61.2594 39.3533C61.5039 39.5974 61.6261 39.7448 61.6261 39.7957C61.6261 39.8872 61.4886 40.1771 61.2136 40.6653C60.9488 41.1535 60.5974 41.6672 60.1594 42.2062C59.7214 42.7453 59.2426 43.2233 58.7231 43.6403C58.2138 44.0573 57.7147 44.2658 57.2258 44.2658C56.197 44.2658 55.3669 44.0573 54.7353 43.6403C54.0936 43.2233 53.564 42.6995 53.1463 42.0689C52.7389 41.4281 52.4231 40.7314 52.199 39.9788C51.975 39.216 51.7916 38.4938 51.649 37.8124C51.5471 37.4767 51.4504 37.3089 51.3587 37.3089C51.2059 37.3089 50.9105 37.8327 50.4725 38.8803C50.0345 39.9279 49.5609 41.0722 49.0516 42.313C48.5321 43.564 48.0432 44.7134 47.5848 45.761C47.1163 46.8086 46.8107 47.3324 46.6681 47.3324C45.7819 47.3324 45.0332 46.9561 44.4221 46.2034C43.8109 45.4406 43.322 44.5608 42.9553 43.564C42.5886 42.5673 42.3085 41.54 42.115 40.4822C41.9214 39.4346 41.7992 38.621 41.7483 38.0412C41.6057 36.719 41.2899 34.522 40.801 31.4504C40.312 28.3686 39.8944 24.6308 39.5481 20.2369C39.4462 19.3114 39.3342 18.4722 39.212 17.7196C39.0897 16.9568 38.9573 16.1126 38.8147 15.187C38.6721 14.2615 38.5499 13.2138 38.448 12.0442C38.3462 10.8644 38.2952 9.42007 38.2952 7.71135C38.2952 7.61981 38.3207 7.30451 38.3716 6.76545C38.4226 6.22639 38.4989 5.64155 38.6008 5.01095C38.6925 4.37018 38.8504 3.8057 39.0745 3.31749C39.2884 2.82928 39.543 2.58518 39.8384 2.58518C40.1847 2.58518 40.5056 2.79368 40.801 3.21069C41.0862 3.6277 41.3408 4.10574 41.5649 4.6448C41.789 5.18386 41.9469 5.6975 42.0386 6.1857C42.1404 6.67391 42.1914 7.01464 42.1914 7.20789C42.1914 7.9402 42.1404 8.62166 42.0386 9.25226C41.9469 9.89303 41.9011 10.4779 41.9011 11.0067C41.9011 11.7391 41.9622 12.6697 42.0844 13.7987C42.2066 14.9175 42.3645 16.0617 42.558 17.2314C42.7516 18.4112 42.9196 19.5504 43.0622 20.6488C43.215 21.7473 43.3373 22.6373 43.4289 23.3187C43.4289 23.3696 43.4799 23.7103 43.5817 24.3409C43.6836 24.9715 43.7956 25.7648 43.9179 26.7209C44.0401 27.677 44.1623 28.7043 44.2846 29.8027C44.4068 30.9012 44.5392 31.9742 44.6818 33.0218C44.8244 34.0694 44.9568 34.995 45.0791 35.7985C45.2013 36.602 45.2879 37.1767 45.3388 37.5225C45.3388 37.6649 45.3745 37.8734 45.4458 38.148C45.5272 38.4124 45.6036 38.7176 45.6749 39.0634C45.7462 39.399 45.8328 39.7143 45.9347 40.0093C46.0264 40.3043 46.1486 40.5229 46.3014 40.6653C46.5866 40.0856 46.9635 39.1854 47.432 37.9649C47.9006 36.7444 48.3895 35.4985 48.8988 34.2271C49.4081 32.9557 49.897 31.8471 50.3656 30.9012C50.8341 29.9451 51.2365 29.4671 51.5726 29.4671C51.9699 29.4671 52.2907 29.5383 52.5352 29.6807C52.7796 29.8332 53.0954 29.9553 53.4825 30.0468C53.9714 30.2502 54.2159 30.5096 54.2159 30.8249C54.2159 31.1402 54.2668 31.5165 54.3686 31.9539C54.4603 32.5438 54.6182 33.3117 54.8423 34.2576C55.0562 35.2137 55.3108 36.1443 55.6062 37.0495C55.9016 37.9548 56.2429 38.7227 56.6299 39.3533C57.0272 39.9839 57.4193 40.2992 57.8064 40.2992C57.9999 40.2992 58.2699 40.0449 58.6162 39.5363C58.9625 39.0278 59.426 38.7481 60.0066 38.6972C60.1084 38.6972 60.2816 38.7583 60.526 38.8803C60.7705 39.0024 61.015 39.16 61.2594 39.3533ZM100.786 37.6751C100.786 38.5498 100.384 39.633 99.579 40.9247C98.7743 42.2164 97.6844 43.4725 96.3093 44.693C94.9444 45.9135 93.3553 46.951 91.5423 47.8053C89.7393 48.6597 87.86 49.0869 85.9043 49.0869C85.0182 49.0869 84.0861 48.9445 83.1083 48.6597C82.1304 48.3647 81.178 47.9376 80.2511 47.3782C79.3242 46.8086 78.4941 46.1221 77.7607 45.3185C77.0273 44.515 76.4874 43.5996 76.1411 42.5724C75.8457 42.8673 75.4943 43.3555 75.0869 44.037C74.6692 44.7185 74.216 45.4152 73.727 46.1271C73.2381 46.8391 72.6982 47.4494 72.1075 47.9579C71.5269 48.4665 70.9157 48.7207 70.274 48.7207C69.6425 48.7207 69.1179 48.3953 68.7003 47.7443C68.2826 47.0832 67.9516 46.3509 67.7071 45.5474C67.4627 44.7337 67.2946 43.9607 67.2029 43.2284C67.1011 42.4961 67.0501 42.0842 67.0501 41.9926C67.0501 41.4027 67.2233 40.289 67.5696 38.6515C67.9058 37.0241 68.4151 35.3306 69.0975 33.5711C69.7902 31.8115 70.6611 30.2502 71.7102 28.8873C72.7594 27.5142 73.9919 26.8277 75.4077 26.8277C75.9476 26.8277 76.3041 27.0616 76.4772 27.5295C76.6504 27.9872 76.737 28.4398 76.737 28.8873V31.0843C76.9814 31.2775 77.2361 31.4097 77.5009 31.4809C77.7658 31.5521 78.0102 31.6487 78.2343 31.7708C78.4584 31.8929 78.6316 32.0759 78.7538 32.32C78.876 32.5641 78.9371 32.9557 78.9371 33.4948C78.9371 33.8406 78.9117 34.1457 78.8607 34.4102C78.8098 34.6746 78.7844 34.9289 78.7844 35.173C78.7844 36.4444 78.8811 37.6903 79.0747 38.9108C79.2682 40.1313 79.6603 41.2196 80.2511 42.1757C80.8419 43.1216 81.6466 43.8997 82.6652 44.5099C83.694 45.1202 85.064 45.4253 86.7752 45.4253C88.9245 45.4253 90.7477 44.9778 92.2451 44.0828C93.7322 43.1776 94.98 42.1757 95.9884 41.0772C96.9866 39.9788 97.7811 38.9769 98.3719 38.0717C98.9525 37.1665 99.4415 36.7139 99.8387 36.7139C100.47 36.7139 100.786 37.0343 100.786 37.6751ZM75.041 34.4407C75.041 34.2474 74.9952 34.0644 74.9035 33.8914C74.8016 33.7287 74.7507 33.5711 74.7507 33.4185C74.7507 33.2252 74.8016 33.0574 74.9035 32.915C74.9952 32.7625 75.041 32.5641 75.041 32.32C75.041 32.1776 74.9952 32.0708 74.9035 31.9996C74.8016 31.9183 74.7507 31.8318 74.7507 31.7403C74.3127 31.8318 73.8595 32.2438 73.3909 32.9761C72.9325 33.7084 72.4945 34.5627 72.0769 35.5391C71.6593 36.5156 71.3282 37.5072 71.0838 38.5142C70.8393 39.5109 70.7171 40.3297 70.7171 40.9704C70.7171 41.3061 70.8139 41.8655 71.0074 42.6487C71.2009 43.4318 71.4199 43.9455 71.6644 44.1896C72.4996 42.4808 73.2738 40.8179 73.9868 39.2007C74.6896 37.5937 75.041 36.007 75.041 34.4407ZM118.968 30.5655C118.968 30.9114 118.825 31.1911 118.54 31.4046C118.245 31.6284 117.898 31.8115 117.501 31.9539C117.114 32.1064 116.727 32.2183 116.34 32.2895C115.943 32.3607 115.622 32.3963 115.377 32.3963C114.644 32.3963 114.155 32.3455 113.911 32.2438C113.666 32.1522 113.473 32.1064 113.33 32.1064C112.108 32.1064 111.13 32.2031 110.396 32.3963C109.663 32.5896 109.088 32.9049 108.67 33.3422C108.252 33.7897 107.982 34.339 107.86 34.9899C107.738 35.651 107.677 36.4444 107.677 37.3699C107.677 38.9363 107.738 40.1822 107.86 41.1078C107.982 42.0333 108.105 42.7911 108.227 43.381C108.349 43.9709 108.471 44.4235 108.594 44.7388C108.716 45.0541 108.777 45.3592 108.777 45.6542C108.777 46.0407 108.568 46.4526 108.15 46.89C107.743 47.3375 107.366 47.5612 107.02 47.5612C106.429 47.5612 105.904 47.0324 105.446 45.9746C104.978 44.927 104.585 43.6861 104.27 42.252C103.954 40.8077 103.699 39.3787 103.506 37.9649C103.302 36.5512 103.2 35.4781 103.2 34.7458C103.2 33.9118 103.276 33.1185 103.429 32.3658C103.572 31.603 103.765 30.9419 104.01 30.3825C104.254 29.8231 104.524 29.3704 104.82 29.0246C105.115 28.689 105.41 28.5212 105.706 28.5212C105.95 28.5212 106.144 28.6025 106.286 28.7653C106.429 28.9382 106.551 29.1365 106.653 29.3603C106.755 29.5739 106.867 29.7671 106.989 29.94C107.111 30.1129 107.269 30.1994 107.463 30.1994C107.901 30.1994 108.609 29.9807 109.587 29.5434C110.565 29.106 111.761 28.8873 113.177 28.8873C114.501 28.8873 115.494 28.9229 116.157 28.9941C116.808 29.0653 117.455 29.223 118.097 29.4671C118.24 29.5179 118.423 29.6298 118.647 29.8027C118.861 29.9655 118.968 30.2197 118.968 30.5655ZM134.598 50.7804C134.598 51.1669 134.451 51.4567 134.155 51.65C133.86 51.8534 133.519 51.9551 133.131 51.9551C132.693 51.9551 132.24 51.5381 131.772 50.7041C131.303 49.8701 130.85 48.8224 130.412 47.5612C129.974 46.2899 129.561 44.9066 129.174 43.4115C128.777 41.9265 128.431 40.5382 128.135 39.2465C127.85 37.9548 127.621 36.8665 127.448 35.9816C127.275 35.1069 127.188 34.6187 127.188 34.517C127.188 34.3237 127.101 33.8101 126.928 32.9761C126.755 32.1522 126.536 30.8605 126.271 29.1009C126.006 27.3413 125.711 25.058 125.385 22.2508C125.069 19.4436 124.743 15.9651 124.407 11.8153C124.407 11.378 124.479 10.8186 124.621 10.1371C124.764 9.45567 125.105 9.11495 125.645 9.11495C126.327 9.11495 126.852 9.57773 127.219 10.5033C127.585 11.4288 127.881 12.5731 128.105 13.936C128.329 15.3091 128.487 16.7381 128.578 18.2231C128.68 19.7182 128.802 21.0252 128.945 22.144C129.139 23.7103 129.322 25.1241 129.495 26.3853C129.668 27.6566 129.841 28.9178 130.015 30.1689C130.188 31.4097 130.407 32.7116 130.672 34.0745C130.936 35.4476 131.267 36.9631 131.665 38.621L134.598 50.7804ZM160.71 45.2117C160.751 45.3135 160.771 45.4609 160.771 45.6542C160.771 45.9491 160.552 46.3865 160.114 46.9662C159.971 47.1595 159.656 47.4799 159.167 47.9274C158.678 48.3647 158.016 48.8021 157.18 49.2395C156.355 49.6768 155.342 50.0684 154.14 50.4142C152.938 50.7498 151.532 50.9177 149.923 50.9177C148.803 50.9177 147.702 50.6634 146.623 50.1548C145.543 49.6463 144.591 48.8886 143.766 47.8816C142.93 46.8849 142.243 45.6389 141.703 44.1438C141.173 42.6588 140.908 40.9145 140.908 38.9108C140.908 37.0089 141.153 35.2289 141.642 33.5711C142.131 31.9132 142.752 30.4486 143.506 29.1772C144.26 27.9058 145.105 26.904 146.042 26.1717C146.969 25.4394 147.871 25.0732 148.747 25.0732C149.531 25.0732 150.325 25.2309 151.13 25.5462C151.935 25.8615 152.668 26.2632 153.33 26.7514C153.992 27.2396 154.517 27.7889 154.904 28.3991C155.301 29.0094 155.5 29.6349 155.5 30.2757C155.5 31.008 155.169 31.7657 154.507 32.5489C153.845 33.3219 153.05 34.0389 152.123 34.7C151.196 35.3612 150.269 35.9002 149.342 36.3172C148.405 36.7342 147.672 36.9427 147.142 36.9427C146.847 36.9427 146.587 36.8054 146.363 36.5308C146.149 36.2664 146.042 35.9358 146.042 35.5391C146.042 34.8577 146.348 34.3237 146.959 33.9372C147.57 33.5406 148.242 33.1846 148.976 32.8693C149.709 32.554 150.381 32.1776 150.993 31.7403C151.604 31.3029 151.909 30.6927 151.909 29.9095C151.909 29.8078 151.787 29.5637 151.543 29.1772C151.298 28.7805 150.636 28.5822 149.556 28.5822C149.067 28.5822 148.507 28.867 147.876 29.4366C147.234 29.996 146.623 30.7486 146.042 31.6945C145.451 32.6506 144.962 33.7745 144.575 35.0662C144.178 36.3579 143.979 37.7615 143.979 39.277C143.979 40.5484 144.214 41.6977 144.682 42.7249C145.141 43.7522 145.737 44.6167 146.47 45.3185C147.203 46.0305 148.059 46.5797 149.037 46.9662C150.015 47.3629 151.018 47.5612 152.047 47.5612C152.78 47.5612 153.575 47.3985 154.43 47.073C155.286 46.7577 156.096 46.417 156.86 46.0509C157.613 45.6847 158.27 45.344 158.831 45.0287C159.391 44.7134 159.747 44.5557 159.9 44.5557C160.043 44.5557 160.201 44.6269 160.374 44.7693C160.547 44.9219 160.659 45.0694 160.71 45.2117ZM182.406 43.2284C182.406 44.0624 182.126 44.7846 181.566 45.3948C181.005 46.0051 180.297 46.5187 179.442 46.9357C178.586 47.3527 177.644 47.6833 176.615 47.9274C175.586 48.1715 174.609 48.3546 173.682 48.4766C172.755 48.5987 171.935 48.6699 171.222 48.6902C170.519 48.7106 170.071 48.7207 169.877 48.7207C168.798 48.7207 167.962 48.5529 167.372 48.2173C166.791 47.8715 166.501 47.2612 166.501 46.3865C166.501 46.0915 166.526 45.8322 166.577 45.6084C166.618 45.3948 166.811 45.288 167.158 45.288C167.3 45.288 167.545 45.3236 167.891 45.3948C168.237 45.466 168.507 45.5016 168.701 45.5016C168.894 45.5016 169.516 45.466 170.565 45.3948C171.614 45.3236 172.74 45.1914 173.941 44.9982C175.143 44.7947 176.218 44.5099 177.165 44.1438C178.123 43.7776 178.602 43.3047 178.602 42.7249C178.602 42.6232 178.097 42.3181 177.089 41.8096C176.091 41.2908 174.588 40.4212 172.582 39.2007C171.023 38.2243 169.923 37.2377 169.281 36.2409C168.65 35.2442 168.334 33.8914 168.334 32.1827C168.334 31.1046 168.563 30.2248 169.022 29.5434C169.49 28.8619 170.127 28.3228 170.931 27.9262C171.736 27.5397 172.668 27.26 173.728 27.0871C174.777 26.9142 175.887 26.8277 177.058 26.8277C177.16 26.8277 177.466 26.8786 177.975 26.9803C178.484 27.0718 179.034 27.2295 179.625 27.4532C180.216 27.677 180.741 27.9465 181.199 28.2618C181.667 28.5771 181.902 28.928 181.902 29.3145C181.902 29.4162 181.815 29.5637 181.642 29.7569C181.469 29.9502 181.189 30.3164 180.802 30.8554C180.649 30.8046 180.389 30.7334 180.022 30.6418C179.656 30.5401 179.243 30.4282 178.785 30.3062C178.316 30.1841 177.838 30.0875 177.349 30.0163C176.86 29.9451 176.468 29.9095 176.172 29.9095C174.909 29.9095 173.885 30.1384 173.101 30.5961C172.317 31.0639 171.925 31.959 171.925 33.2812C171.925 33.9118 172.179 34.4966 172.689 35.0357C173.208 35.5747 173.86 36.0731 174.644 36.5308C175.418 36.9987 176.259 37.4615 177.165 37.9192C178.072 38.387 178.917 38.8905 179.702 39.4295C180.486 39.9686 181.133 40.5433 181.642 41.1535C182.151 41.7638 182.406 42.4554 182.406 43.2284ZM259.564 56.2727C259.564 56.6083 259.442 56.9745 259.198 57.3711C258.953 57.7576 258.612 57.9509 258.174 57.9509C257.93 57.9509 257.66 57.8797 257.364 57.7373C255.602 56.9033 253.55 56.232 251.207 55.7235C248.854 55.2047 246.445 54.7521 243.98 54.3656C241.515 53.9791 239.106 53.5519 236.753 53.0841C234.41 52.6162 232.358 52.0161 230.596 51.2838C230.891 51.9246 231.186 52.4382 231.482 52.8247C231.767 53.2214 232.022 53.5621 232.246 53.8469C232.47 54.1419 232.653 54.4267 232.796 54.7013C232.938 54.9657 233.01 55.3166 233.01 55.754C233.01 56.1506 232.867 56.4456 232.582 56.6388C232.287 56.8321 231.991 56.9287 231.696 56.9287C231.105 56.9287 230.484 56.5626 229.832 55.8302C229.17 55.0979 228.497 54.1724 227.815 53.0536C227.122 51.9246 226.45 50.6634 225.798 49.27C225.136 47.8867 224.535 46.534 223.995 45.2117C223.455 43.8895 222.992 42.6792 222.605 41.5807C222.208 40.4822 221.938 39.6431 221.795 39.0634L218.571 26.1717C218.571 26.0293 218.607 25.836 218.678 25.5919C218.749 25.3478 218.933 25.1037 219.228 24.8596C219.035 24.463 218.938 24.0459 218.938 23.6086C218.938 22.2457 219.717 20.9896 221.276 19.8402C222.844 18.6909 224.739 17.7145 226.959 16.911C229.19 16.1075 231.528 15.482 233.972 15.0345C236.417 14.5971 238.495 14.3784 240.206 14.3784C240.695 14.3784 241.428 14.414 242.406 14.4852C243.384 14.5666 244.347 14.7497 245.294 15.0345C246.251 15.3294 247.087 15.782 247.8 16.3923C248.503 17.0025 248.854 17.8467 248.854 18.9249C248.854 19.9521 248.329 21.1218 247.28 22.4338C246.231 23.7561 244.922 25.1495 243.354 26.6141C241.795 28.0787 240.109 29.579 238.296 31.1148C236.483 32.6506 234.797 34.1864 233.239 35.7222C231.67 37.2682 230.361 38.7583 229.312 40.1924C228.263 41.6366 227.739 42.969 227.739 44.1896C227.739 45.1151 228.141 45.9339 228.946 46.6459C229.75 47.3477 230.764 47.9681 231.986 48.5071C233.208 49.0462 234.543 49.509 235.989 49.8955C237.425 50.2922 238.795 50.6125 240.099 50.8566C241.393 51.1007 242.513 51.2838 243.461 51.4059C244.418 51.5279 244.993 51.589 245.187 51.589C245.829 51.589 246.929 51.6601 248.487 51.8025C250.056 51.9449 251.66 52.1992 253.3 52.5654C254.93 52.9315 256.381 53.4096 257.655 53.9995C258.928 54.5894 259.564 55.3471 259.564 56.2727ZM245.416 19.0011C245.416 18.6553 245.243 18.3502 244.897 18.0857C244.55 17.8111 244.097 17.5874 243.537 17.4145C242.977 17.2517 242.366 17.1297 241.703 17.0483C241.041 16.9771 240.395 16.9415 239.763 16.9415C238.785 16.9415 237.614 17.089 236.249 17.3839C234.874 17.6789 233.488 18.0451 232.093 18.4824C230.708 18.9198 229.424 19.3571 228.243 19.7945C227.071 20.242 226.216 20.6082 225.676 20.8929C224.657 21.4829 223.659 22.1338 222.681 22.8458C221.703 23.5476 221.214 24.2392 221.214 24.9206C221.214 25.0224 221.286 25.1241 221.428 25.2258C221.571 25.3173 221.642 25.4851 221.642 25.7292C221.642 26.0242 221.79 26.7718 222.085 27.9719C222.381 29.1619 222.722 30.5045 223.109 31.9996C223.506 33.4846 223.934 34.9594 224.392 36.424C224.861 37.8886 225.289 39.0583 225.676 39.933C227.682 37.1055 229.847 34.6288 232.169 32.5031C234.492 30.3774 236.631 28.5008 238.587 26.8735C240.542 25.2359 242.167 23.7917 243.461 22.5406C244.764 21.2998 245.416 20.1199 245.416 19.0011ZM269.756 37.0801C269.756 38.1582 269.608 39.1854 269.312 40.1619C269.027 41.1383 268.64 41.9926 268.151 42.7249C267.662 43.4573 267.087 44.0319 266.425 44.4489C265.763 44.8558 265.039 45.0592 264.255 45.0592C262.89 45.0592 261.816 44.6727 261.031 43.8997C260.247 43.1165 259.646 42.2113 259.228 41.184C258.821 40.1568 258.556 39.1193 258.434 38.0717C258.312 37.0241 258.251 36.2308 258.251 35.6917C258.251 34.817 258.383 33.8304 258.648 32.732C258.913 31.6335 259.279 30.6164 259.748 29.6807C260.216 28.7551 260.741 27.977 261.322 27.3464C261.912 26.7057 262.523 26.3853 263.155 26.3853C263.308 26.3853 263.542 26.4361 263.858 26.5378C264.174 26.6395 264.505 26.787 264.851 26.9803C265.187 27.1735 265.493 27.4176 265.768 27.7126C266.033 28.0075 266.216 28.3483 266.318 28.7348C266.847 28.7856 267.382 28.9789 267.922 29.3145C268.462 29.6603 268.757 29.9299 268.808 30.1231C269.195 31.3945 269.45 32.6658 269.572 33.9372C269.694 35.2086 269.756 36.2562 269.756 37.0801ZM266.455 35.768C266.455 35.0357 266.384 34.2678 266.241 33.4643C266.089 32.6506 265.793 31.8318 265.355 31.008C265.264 31.0588 265.141 31.0843 264.988 31.0843C264.795 31.0843 264.637 31.0588 264.515 31.008C264.393 30.9571 264.281 30.9317 264.179 30.9317C263.598 30.9317 263.135 31.0893 262.788 31.4046C262.452 31.7199 262.198 32.137 262.024 32.6557C261.851 33.1642 261.739 33.7135 261.688 34.3034C261.637 34.8831 261.612 35.4425 261.612 35.9816C261.612 36.5206 261.637 37.1207 261.688 37.7818C261.739 38.443 261.851 39.0634 262.024 39.6431C262.198 40.2331 262.427 40.7365 262.712 41.1535C263.007 41.5604 263.399 41.7638 263.888 41.7638C264.377 41.7638 264.795 41.5095 265.141 41.001C265.477 40.4924 265.747 39.8923 265.951 39.2007C266.145 38.5192 266.277 37.848 266.348 37.1868C266.42 36.5359 266.455 36.063 266.455 35.768ZM294.614 38.3311C294.614 40.528 294.36 42.4554 293.85 44.1133C293.341 45.7711 292.72 47.1493 291.986 48.2478C291.253 49.3462 290.504 50.165 289.74 50.7041C288.987 51.2431 288.365 51.5127 287.876 51.5127C287.194 51.5127 286.532 51.2075 285.89 50.5973C285.259 49.987 284.943 49.4124 284.943 48.8733C284.943 48.0901 285.259 47.6986 285.89 47.6986C286.135 47.6986 286.379 47.785 286.623 47.9579C286.868 48.1308 287.087 48.263 287.28 48.3546C288.116 47.6731 288.91 46.5543 289.664 44.9982C290.428 43.4318 290.81 41.2095 290.81 38.3311C290.81 37.1614 290.688 36.1087 290.443 35.173C290.199 34.2474 289.919 33.4694 289.603 32.8388C289.277 32.198 288.946 31.7098 288.61 31.3741C288.263 31.0283 288.019 30.8554 287.876 30.8554C287.387 30.8554 286.909 31.3436 286.44 32.32C285.982 33.2964 285.579 34.4102 285.233 35.6612C284.887 36.9021 284.607 38.1226 284.393 39.3228C284.169 40.5128 284.057 41.3264 284.057 41.7638C284.108 42.0587 284.158 42.3283 284.209 42.5724C284.26 42.8165 284.306 43.0606 284.347 43.3047C284.398 43.5488 284.423 43.7929 284.423 44.037C284.423 44.9626 284.108 45.7915 283.476 46.5238C282.834 47.2561 282.223 47.6223 281.643 47.6223C281.347 47.6223 281.113 47.4188 280.94 47.012C280.767 46.595 280.634 46.0661 280.542 45.4253C280.441 44.7947 280.354 44.1387 280.283 43.4573C280.211 42.7758 280.125 42.1655 280.023 41.6265C279.636 40.7416 279.121 39.3482 278.48 37.4462C277.848 35.5442 277.176 33.505 276.463 31.3284C275.76 29.1619 275.103 27.0515 274.492 24.9969C273.881 22.9526 273.428 21.3201 273.132 20.0996C272.45 17.4551 271.925 15.1463 271.558 13.1732C271.192 11.2 270.896 9.46585 270.672 7.97071C270.458 6.48575 270.326 5.20421 270.275 4.12608C270.224 3.05813 270.199 2.158 270.199 1.42569C270.199 0.978164 270.382 0.63235 270.749 0.388247C271.115 0.144143 271.446 0.0220947 271.742 0.0220947C272.18 0.0220947 272.496 0.108545 272.689 0.281452C272.883 0.454358 273.02 0.810344 273.102 1.34941C273.173 1.88847 273.244 2.66655 273.316 3.68364C273.387 4.71091 273.519 6.07891 273.713 7.78763C273.815 8.62165 273.998 9.77098 274.263 11.2356C274.538 12.7002 274.894 14.3327 275.332 16.1329C275.77 17.9434 276.249 19.8352 276.769 21.8083C277.278 23.7917 277.813 25.6835 278.373 27.4837C278.933 29.2942 279.498 30.9571 280.069 32.4726C280.629 33.9881 281.154 35.1832 281.643 36.0579C282.081 34.2983 282.615 32.7116 283.247 31.2978C283.787 30.1282 284.449 29.0399 285.233 28.033C286.017 27.0362 286.97 26.5378 288.09 26.5378C288.528 26.5378 289.114 26.7311 289.847 27.1176C290.581 27.5142 291.304 28.1754 292.017 29.1009C292.73 30.0265 293.341 31.247 293.85 32.7625C294.36 34.2779 294.614 36.1342 294.614 38.3311ZM305.768 19.2147C305.768 19.3164 305.595 19.5097 305.248 19.7945C304.912 20.0894 304.51 20.3946 304.041 20.7099C303.583 21.0353 303.109 21.3201 302.62 21.5642C302.132 21.8083 301.739 21.9304 301.444 21.9304C301.25 21.9304 300.991 21.9151 300.665 21.8846C300.349 21.8643 300.033 21.7778 299.717 21.6252C299.402 21.4829 299.122 21.2794 298.877 21.015C298.633 20.7404 298.51 20.3844 298.51 19.947C298.51 19.2656 298.755 18.6197 299.244 18.0095C299.733 17.3992 300.369 17.0941 301.154 17.0941C301.296 17.0941 301.622 17.1551 302.132 17.2772C302.651 17.3992 303.181 17.5569 303.721 17.7501C304.25 17.9434 304.724 18.162 305.141 18.4061C305.559 18.6502 305.768 18.9198 305.768 19.2147ZM308.182 46.6001C308.182 46.9459 307.927 47.2409 307.418 47.485C306.909 47.7291 306.532 47.8511 306.287 47.8511C305.798 47.8511 305.355 47.5307 304.958 46.89C304.571 46.2594 304.23 45.527 303.934 44.693C303.639 43.8692 303.395 43.0758 303.201 42.313C303.008 41.5604 302.86 41.0366 302.758 40.7416C302.615 40.2534 302.422 39.6686 302.177 38.9871C301.933 38.3057 301.699 37.6445 301.475 37.0038C301.261 36.3732 301.077 35.8138 300.924 35.3256C300.782 34.8373 300.711 34.5678 300.711 34.517C300.711 33.8355 300.843 33.1998 301.108 32.6099C301.383 32.0302 301.714 31.7403 302.101 31.7403C302.539 31.7403 303.002 32.081 303.491 32.7625C303.98 33.4439 304.459 34.3085 304.928 35.3561C305.386 36.4138 305.814 37.5632 306.211 38.804C306.598 40.0449 306.939 41.2146 307.235 42.313C307.53 43.4115 307.764 44.3676 307.938 45.1812C308.1 45.9847 308.182 46.4577 308.182 46.6001ZM334.813 43.8997C334.813 44.1845 334.716 44.4743 334.523 44.7693C334.319 45.0643 334.085 45.3338 333.82 45.5779C333.555 45.822 333.26 46.0305 332.934 46.2034C332.618 46.3763 332.338 46.4628 332.093 46.4628C331.268 46.4628 330.204 46.2797 328.9 45.9135C327.607 45.5474 326.568 44.9727 325.783 44.1896C324.958 43.3555 324.225 42.3639 323.583 41.2146C322.952 40.0754 322.244 38.3819 321.459 36.1341C320.92 38.2802 320.298 40.4009 319.595 42.4961C318.882 44.6015 317.747 46.534 316.188 48.2936C316.086 48.3851 315.939 48.4309 315.745 48.4309C315.399 48.4309 315.032 48.263 314.645 47.9274C314.248 47.5816 314.049 47.2358 314.049 46.89C314.049 46.5543 314.013 45.761 313.942 44.5099C313.871 43.2691 313.784 41.8808 313.682 40.3449C313.591 38.8091 313.509 37.2479 313.438 35.6612C313.356 34.0745 313.316 32.7676 313.316 31.7403C313.316 31.2521 313.341 30.6062 313.392 29.8027C313.443 28.989 313.591 28.2923 313.835 27.7126C313.886 27.6109 314.069 27.4125 314.385 27.1176C314.701 26.8328 315.057 26.6904 315.455 26.6904C315.791 26.6904 315.984 26.9091 316.035 27.3464C316.086 27.7838 316.112 28.272 316.112 28.811V40.3754C316.112 40.6196 316.147 40.9603 316.219 41.3976C316.29 41.8452 316.402 42.1655 316.555 42.3588C317.085 41.1891 317.584 39.811 318.052 38.2243C318.521 36.6376 318.974 35.1221 319.412 33.6779C319.85 32.2336 320.288 31.0131 320.726 30.0163C321.164 29.0196 321.607 28.5212 322.055 28.5212C322.544 28.5212 322.931 28.6178 323.216 28.811C323.512 29.0043 323.756 29.3959 323.95 29.9858C324.194 31.3996 324.393 32.6557 324.546 33.7541C324.688 34.8526 324.872 35.8392 325.096 36.7139C325.31 37.5988 325.625 38.4175 326.043 39.1702C326.461 39.9228 327.036 40.6196 327.77 41.2603C328.452 41.8909 329.221 42.3537 330.077 42.6487C330.932 42.9436 331.681 43.0911 332.323 43.0911C332.608 43.0911 332.924 43.0301 333.27 42.908C333.616 42.786 333.861 42.7249 334.003 42.7249C334.197 42.7249 334.38 42.8928 334.553 43.2284C334.727 43.5742 334.813 43.798 334.813 43.8997ZM355.119 43.2284C355.119 44.0624 354.839 44.7846 354.278 45.3948C353.718 46.0051 353.01 46.5187 352.155 46.9357C351.299 47.3527 350.357 47.6833 349.328 47.9274C348.299 48.1715 347.321 48.3546 346.395 48.4766C345.468 48.5987 344.648 48.6699 343.935 48.6902C343.232 48.7106 342.784 48.7207 342.59 48.7207C341.51 48.7207 340.675 48.5529 340.084 48.2173C339.504 47.8715 339.213 47.2612 339.213 46.3865C339.213 46.0915 339.239 45.8322 339.29 45.6084C339.331 45.3948 339.524 45.288 339.87 45.288C340.013 45.288 340.258 45.3236 340.604 45.3948C340.95 45.466 341.22 45.5016 341.414 45.5016C341.607 45.5016 342.229 45.466 343.278 45.3948C344.327 45.3236 345.452 45.1914 346.654 44.9982C347.856 44.7947 348.931 44.5099 349.878 44.1438C350.836 43.7776 351.314 43.3047 351.314 42.7249C351.314 42.6232 350.81 42.3181 349.802 41.8096C348.804 41.2908 347.301 40.4212 345.294 39.2007C343.736 38.2243 342.636 37.2377 341.994 36.2409C341.363 35.2442 341.047 33.8914 341.047 32.1827C341.047 31.1046 341.276 30.2248 341.734 29.5434C342.203 28.8619 342.84 28.3228 343.644 27.9262C344.449 27.5397 345.381 27.26 346.44 27.0871C347.49 26.9142 348.6 26.8277 349.771 26.8277C349.873 26.8277 350.179 26.8786 350.688 26.9803C351.197 27.0718 351.747 27.2295 352.338 27.4532C352.929 27.677 353.453 27.9465 353.912 28.2618C354.38 28.5771 354.615 28.928 354.615 29.3145C354.615 29.4162 354.528 29.5637 354.355 29.7569C354.182 29.9502 353.902 30.3164 353.515 30.8554C353.362 30.8046 353.102 30.7334 352.735 30.6418C352.369 30.5401 351.956 30.4282 351.498 30.3062C351.029 30.1841 350.55 30.0875 350.061 30.0163C349.573 29.9451 349.18 29.9095 348.885 29.9095C347.622 29.9095 346.598 30.1384 345.814 30.5961C345.03 31.0639 344.637 31.959 344.637 33.2812C344.637 33.9118 344.892 34.4966 345.401 35.0357C345.921 35.5747 346.573 36.0731 347.357 36.5308C348.131 36.9987 348.972 37.4615 349.878 37.9192C350.785 38.387 351.63 38.8905 352.414 39.4295C353.199 39.9686 353.846 40.5433 354.355 41.1535C354.864 41.7638 355.119 42.4554 355.119 43.2284ZM374.554 37.0801C374.554 38.1582 374.411 39.1854 374.126 40.1619C373.83 41.1383 373.438 41.9926 372.949 42.7249C372.46 43.4573 371.885 44.0319 371.223 44.4489C370.561 44.8558 369.837 45.0592 369.053 45.0592C367.688 45.0592 366.614 44.6727 365.829 43.8997C365.045 43.1165 364.449 42.2113 364.042 41.184C363.624 40.1568 363.354 39.1193 363.232 38.0717C363.11 37.0241 363.049 36.2308 363.049 35.6917C363.049 34.817 363.181 33.8304 363.446 32.732C363.721 31.6335 364.088 30.6164 364.546 29.6807C365.014 28.7551 365.539 27.977 366.12 27.3464C366.71 26.7057 367.322 26.3853 367.953 26.3853C368.106 26.3853 368.34 26.4361 368.656 26.5378C368.972 26.6395 369.303 26.787 369.649 26.9803C369.985 27.1735 370.291 27.4176 370.566 27.7126C370.831 28.0075 371.014 28.3483 371.116 28.7348C371.656 28.7856 372.19 28.9789 372.72 29.3145C373.26 29.6603 373.555 29.9299 373.606 30.1231C373.993 31.3945 374.248 32.6658 374.37 33.9372C374.492 35.2086 374.554 36.2562 374.554 37.0801ZM371.253 35.768C371.253 35.0357 371.182 34.2678 371.039 33.4643C370.897 32.6506 370.601 31.8318 370.153 31.008C370.062 31.0588 369.939 31.0843 369.787 31.0843C369.593 31.0843 369.435 31.0588 369.313 31.008C369.191 30.9571 369.084 30.9317 368.992 30.9317C368.401 30.9317 367.933 31.0893 367.586 31.4046C367.25 31.7199 366.996 32.137 366.822 32.6557C366.649 33.1642 366.537 33.7135 366.486 34.3034C366.446 34.8831 366.425 35.4425 366.425 35.9816C366.425 36.5206 366.446 37.1207 366.486 37.7818C366.537 38.443 366.649 39.0634 366.822 39.6431C366.996 40.2331 367.23 40.7365 367.525 41.1535C367.81 41.5604 368.198 41.7638 368.686 41.7638C369.175 41.7638 369.593 41.5095 369.939 41.001C370.286 40.4924 370.556 39.8923 370.749 39.2007C370.943 38.5192 371.075 37.848 371.146 37.1868C371.218 36.5359 371.253 36.063 371.253 35.768ZM403.966 43.8997C403.966 44.1845 403.869 44.4743 403.675 44.7693C403.482 45.0643 403.247 45.3338 402.972 45.5779C402.708 45.822 402.417 46.0305 402.101 46.2034C401.786 46.3763 401.506 46.4628 401.261 46.4628C400.426 46.4628 399.361 46.2797 398.068 45.9135C396.774 45.5474 395.735 44.9727 394.951 44.1896C394.116 43.3555 393.382 42.3639 392.751 41.2146C392.109 40.0754 391.401 38.3819 390.627 36.1341C390.087 38.2802 389.461 40.4009 388.748 42.4961C388.045 44.6015 386.909 46.534 385.341 48.2936C385.239 48.3851 385.091 48.4309 384.897 48.4309C384.561 48.4309 384.195 48.263 383.797 47.9274C383.41 47.5816 383.217 47.2358 383.217 46.89C383.217 46.5543 383.181 45.761 383.11 44.5099C383.028 43.2691 382.942 41.8808 382.85 40.3449C382.748 38.8091 382.662 37.2479 382.59 35.6612C382.519 34.0745 382.483 32.7676 382.483 31.7403C382.483 31.2521 382.509 30.6062 382.56 29.8027C382.6 28.989 382.743 28.2923 382.988 27.7126C383.038 27.6109 383.222 27.4125 383.538 27.1176C383.864 26.8328 384.22 26.6904 384.607 26.6904C384.953 26.6904 385.147 26.9091 385.188 27.3464C385.239 27.7838 385.264 28.272 385.264 28.811V40.3754C385.264 40.6196 385.3 40.9603 385.371 41.3976C385.453 41.8452 385.565 42.1655 385.707 42.3588C386.247 41.1891 386.746 39.811 387.205 38.2243C387.673 36.6376 388.126 35.1221 388.564 33.6779C389.002 32.2336 389.445 31.0131 389.894 30.0163C390.332 29.0196 390.77 28.5212 391.208 28.5212C391.697 28.5212 392.089 28.6178 392.384 28.811C392.68 29.0043 392.924 29.3959 393.117 29.9858C393.362 31.3996 393.555 32.6557 393.698 33.7541C393.851 34.8526 394.034 35.8392 394.248 36.7139C394.472 37.5988 394.793 38.4175 395.211 39.1702C395.618 39.9228 396.189 40.6196 396.922 41.2603C397.615 41.8909 398.389 42.3537 399.244 42.6487C400.1 42.9436 400.844 43.0911 401.475 43.0911C401.77 43.0911 402.086 43.0301 402.422 42.908C402.769 42.786 403.013 42.7249 403.156 42.7249C403.359 42.7249 403.543 42.8928 403.706 43.2284C403.879 43.5742 403.966 43.798 403.966 43.8997Z" fill="black"/>
</svg>
