<svg width="90" height="88" viewBox="0 0 90 88" fill="none" xmlns="http://www.w3.org/2000/svg">
<path d="M88 0H18C16.9 0 16 0.9 16 2V22H1.99997C0.899969 22 -3.05176e-05 22.9 -3.05176e-05 24V78C-3.05176e-05 83.5 4.49997 88 9.99997 88H18H22H80C85.5 88 90 83.5 90 78V2C90 0.9 89.1 0 88 0ZM3.99997 78V26H16V66V78C16 81.3 13.3 84 9.99997 84C6.69997 84 3.99997 81.3 3.99997 78ZM86 78C86 81.3 83.3 84 80 84H22H18C19.3 82.3 20 80.3 20 78V66V24V4H86V78ZM28 14C28 12.9 28.9 12 30 12H78C79.1 12 80 12.9 80 14C80 15.1 79.1 16 78 16H30C28.9 16 28 15.1 28 14ZM73 26H35C33.9 26 33 25.1 33 24C33 22.9 33.9 22 35 22H73C74.1 22 75 22.9 75 24C75 25.1 74.1 26 73 26ZM80 36C80 37.1 79.1 38 78 38H54C52.9 38 52 37.1 52 36C52 34.9 52.9 34 54 34H78C79.1 34 80 34.9 80 36ZM80 46C80 47.1 79.1 48 78 48H54C52.9 48 52 47.1 52 46C52 44.9 52.9 44 54 44H78C79.1 44 80 44.9 80 46ZM80 56C80 57.1 79.1 58 78 58H54C52.9 58 52 57.1 52 56C52 54.9 52.9 54 54 54H78C79.1 54 80 54.9 80 56ZM80 66C80 67.1 79.1 68 78 68H54C52.9 68 52 67.1 52 66C52 64.9 52.9 64 54 64H78C79.1 64 80 64.9 80 66ZM80 76C80 77.1 79.1 78 78 78H54C52.9 78 52 77.1 52 76C52 74.9 52.9 74 54 74H78C79.1 74 80 74.9 80 76ZM26 66C26 64.9 26.9 64 28 64H44C45.1 64 46 64.9 46 66C46 67.1 45.1 68 44 68H28C26.9 68 26 67.1 26 66ZM26 76C26 74.9 26.9 74 28 74H44C45.1 74 46 74.9 46 76C46 77.1 45.1 78 44 78H28C26.9 78 26 77.1 26 76ZM28 58H44C45.1 58 46 57.1 46 56V37C46 35.9 45.1 35 44 35H28C26.9 35 26 35.9 26 37V56C26 57.1 26.9 58 28 58ZM30 39H42V54H30V39Z" fill="#0071BC"/>
</svg>
