<svg viewBox="0 0 133 133" xmlns="http://www.w3.org/2000/svg">
    <path d="M119.648 34.3644H85.0642C85.1962 33.7044 85.3282 33.0444 85.3282 32.3844C85.3282 29.8764 84.4042 27.6324 82.6882 25.9164C79.1242 22.3524 73.3162 22.3524 69.7522 25.9164L68.8282 26.8404L53.9122 12.1884C51.9322 10.2084 48.5002 10.2084 46.5202 12.1884C44.8042 13.9044 44.5402 16.5444 45.7282 18.5244C45.7282 18.6564 45.8602 18.7884 45.8602 18.9204C45.8602 19.0524 48.8962 23.6724 44.9362 34.3644H14.0482C10.3522 34.3644 7.44818 37.2684 7.44818 40.9644V104.324C7.44818 108.02 10.3522 110.924 14.0482 110.924H54.9682V113.564H47.0482C43.3522 113.564 40.4482 116.468 40.4482 120.164C40.4482 120.824 41.1082 121.484 41.7682 121.484H91.9282C92.5882 121.484 93.2482 120.824 93.2482 120.164C93.2482 116.468 90.3442 113.564 86.6482 113.564H78.7282V110.924H119.648C123.344 110.924 126.248 108.02 126.248 104.324V40.9644C126.248 37.2684 123.344 34.3644 119.648 34.3644ZM71.4682 27.7644C73.9762 25.2564 78.0682 25.2564 80.7082 27.7644C81.8962 28.9524 82.5562 30.6684 82.5562 32.3844C82.5562 34.1004 81.8962 35.8164 80.7082 37.0044L79.7842 37.9284L70.5442 28.6884L71.4682 27.7644ZM48.3682 14.0364C48.8962 13.5084 49.5562 13.2444 50.2162 13.2444C50.8762 13.2444 51.5362 13.5084 52.0642 14.0364L94.5682 56.4084C95.0962 56.9364 95.3602 57.5964 95.3602 58.2564C95.3602 58.9164 95.0962 59.5764 94.5682 60.1044C93.5122 61.1604 91.9282 61.1604 90.8722 60.1044L48.3682 17.6004C47.4442 16.6764 47.4442 14.9604 48.3682 14.0364ZM49.6882 22.7484L85.7242 58.7844C79.6522 58.1244 67.6402 60.5004 48.5002 76.6044L31.8682 60.1044C47.9722 40.8324 50.3482 28.9524 49.6882 22.7484ZM22.1002 72.5124C21.5722 71.9844 21.5722 71.1924 22.1002 70.6644C25.0042 67.6284 27.6442 64.7244 30.0202 62.0844L46.3882 78.4524C43.6162 80.8284 40.8442 83.4684 37.8082 86.3724C37.2802 86.9004 36.4882 86.9004 35.9602 86.3724L22.1002 72.5124ZM31.8682 85.8444L28.1722 89.5404C26.5882 91.1244 24.0802 91.1244 22.6282 89.5404L19.0642 85.9764C17.4802 84.3924 17.4802 81.8844 19.0642 80.4324L22.7602 76.7364L31.8682 85.8444ZM43.6162 84.3924C45.3322 82.8084 46.9162 81.3564 48.5002 80.0364C48.5002 80.3004 48.6322 80.4324 48.7642 80.5644C48.7642 80.5644 48.7642 80.6964 48.8962 80.6964L65.9242 97.7244L61.1722 102.476L40.7122 87.1644C41.7682 86.2404 42.6922 85.3164 43.6162 84.3924ZM10.0882 40.9644C10.0882 38.7204 11.8042 37.0044 14.0482 37.0044H44.0122C40.5802 44.7924 33.7162 55.2204 20.2522 68.8164C18.8002 70.2684 18.8002 72.7764 20.2522 74.3604L20.6482 74.7564L16.9522 78.4524C14.4442 81.0924 14.4442 85.1844 16.9522 87.8244L20.5162 91.3884C21.8362 92.7084 23.4202 93.3684 25.1362 93.3684C26.8522 93.3684 28.5682 92.7084 29.7562 91.3884L33.4522 87.6924L33.8482 88.0884C34.6402 88.8804 35.5642 89.2764 36.6202 89.2764C37.2802 89.2764 37.8082 89.1444 38.3362 88.8804L52.0642 99.0444H10.0882V40.9644ZM86.6482 116.204C88.3642 116.204 89.8162 117.26 90.3442 118.844H43.3522C43.8802 117.26 45.3322 116.204 47.0482 116.204H86.6482ZM57.6082 113.564V110.924H76.0882V113.564H57.6082ZM123.608 104.324C123.608 106.436 121.892 108.284 119.648 108.284H14.0482C11.8042 108.284 10.0882 106.436 10.0882 104.324V101.684H55.6282L60.5122 105.38C60.7762 105.512 61.0402 105.644 61.3042 105.644C61.7002 105.644 61.9642 105.512 62.2282 105.248L65.7922 101.684H123.608V104.324ZM123.608 99.0444H68.4322L68.6962 98.7804C69.2242 98.2524 69.2242 97.4604 68.6962 96.9324L50.7442 78.9804C50.6122 78.8484 50.3482 78.7164 50.2162 78.7164C78.2002 55.0884 89.5522 62.4804 89.5522 62.6124C89.6842 62.7444 89.8162 62.7444 90.0802 62.8764C90.8722 63.2724 91.7962 63.5364 92.7202 63.5364C94.0402 63.5364 95.3602 63.0084 96.4162 61.9524C97.4722 61.0284 98.0002 59.7084 98.0002 58.2564C98.0002 56.8044 97.4722 55.6164 96.4162 54.5604L81.6322 39.7764L82.5562 38.8524C83.0842 38.3244 83.6122 37.6644 84.0082 37.0044H119.648C121.892 37.0044 123.608 38.7204 123.608 40.9644V99.0444Z"/>
    <path d="M111.728 80.5645H85.3282C82.4242 80.5645 80.0482 82.9405 80.0482 85.8445C80.0482 88.7485 82.4242 91.1245 85.3282 91.1245H111.728C114.632 91.1245 117.008 88.7485 117.008 85.8445C117.008 82.9405 114.632 80.5645 111.728 80.5645ZM111.728 88.4845H85.3282C83.8762 88.4845 82.6882 87.2965 82.6882 85.8445C82.6882 84.3925 83.8762 83.2045 85.3282 83.2045H111.728C113.18 83.2045 114.368 84.3925 114.368 85.8445C114.368 87.2965 113.18 88.4845 111.728 88.4845Z"/>
    <path d="M81.3682 75.2843H99.8482C100.508 75.2843 101.168 74.6243 101.168 73.9643C101.168 73.3043 100.508 72.6443 99.8482 72.6443H81.3682C80.7082 72.6443 80.0482 73.3043 80.0482 73.9643C80.0482 74.6243 80.7082 75.2843 81.3682 75.2843Z"/>
    <path d="M115.688 72.6443H107.768C107.108 72.6443 106.448 73.3043 106.448 73.9643C106.448 74.6243 107.108 75.2843 107.768 75.2843H115.688C116.348 75.2843 117.008 74.6243 117.008 73.9643C117.008 73.3043 116.348 72.6443 115.688 72.6443Z"/>
    <path d="M115.688 62.0845H107.768C107.108 62.0845 106.448 62.7445 106.448 63.4045C106.448 64.0645 107.108 64.7245 107.768 64.7245H115.688C116.348 64.7245 117.008 64.0645 117.008 63.4045C117.008 62.7445 116.348 62.0845 115.688 62.0845Z"/>
</svg>