<svg viewBox="0 0 70 41" fill="none" xmlns="http://www.w3.org/2000/svg">
<g clip-path="url(#clip0_6_745)">
<path d="M69.7489 20.4976C61.5117 11.0924 50.1288 0.281799 35 0.281799C28.8903 0.281799 23.2898 1.99348 17.3801 5.65106C12.3978 8.75009 7.28823 13.1104 0.26936 20.2814L0.0875244 20.4616L1.30582 21.7048C11.325 31.8667 19.9804 40.6413 35 40.6413C41.637 40.6413 48.074 38.4972 54.6747 34.0829C60.2934 30.3172 65.0757 25.5425 68.9124 21.6868L69.9125 20.6958L69.7489 20.4976ZM35 3.16462C41.0188 3.16462 46.8012 4.8763 52.6745 8.67802C57.0203 11.4888 61.2935 15.2905 66.0758 20.5877C59.1115 27.5605 48.6559 37.7585 35 37.7585C28.7812 37.7585 23.3262 36.245 17.8711 32.6775C12.8706 29.4163 8.36106 24.8759 4.01518 20.4616C14.7617 9.70502 23.7262 3.16462 35 3.16462Z" fill="#0071BC"/>
<path d="M35 34.8756C43.019 34.8756 49.5469 28.4073 49.5469 20.4615C49.5469 12.5158 43.019 6.04742 35 6.04742C26.981 6.04742 20.4531 12.5158 20.4531 20.4615C20.4531 28.4073 26.981 34.8756 35 34.8756ZM35 8.9843C41.4006 8.9843 46.6375 14.1373 46.6375 20.4615C46.6375 26.7857 41.4006 31.9388 35 31.9388C28.5994 31.9388 23.3807 26.7857 23.3807 20.4615C23.3807 14.1373 28.5994 8.9843 35 8.9843Z" fill="#0071BC"/>
<path d="M40.8187 20.4616C40.8187 23.6147 38.2003 26.2272 35.0364 26.2272C31.8724 26.2272 29.1812 23.4885 29.1812 20.3355C29.1812 17.1824 32.0542 14.6959 35 14.6959V11.8131C30.1813 11.8131 26.29 15.7049 26.29 20.4976C26.29 25.2903 30.1995 29.1641 35 29.1641C39.8005 29.1641 43.7281 25.2723 43.7281 20.4976V20.4616H40.8187Z" fill="#0071BC"/>
</g>
<defs>
<clipPath id="clip0_6_745">
<rect width="70" height="40.9231" fill="white"/>
</clipPath>
</defs>
</svg>
