<svg width="90" height="90" viewBox="0 0 90 90" fill="none" xmlns="http://www.w3.org/2000/svg">
<path d="M45 82C45.2 82 45.4 82 45.5 81.9C45.6 81.9 45.6 81.9 45.7 81.8C45.8 81.8 45.9 81.7 46 81.6C46.1 81.5 46.2 81.5 46.3 81.4C46.4 81.3 46.5 81.2 46.6 81L69.6 44C70 43.4 70 42.6 69.7 42L57.2 18.9L64.8 2.8C65.1 2.2 65 1.5 64.7 0.9C64.4 0.3 63.7 0 63 0H27C26.3 0 25.7 0.3 25.3 0.9C24.9 1.5 24.9 2.2 25.2 2.8L32.8 18.9L20.2 42C19.9 42.6 19.9 43.4 20.3 44L43.3 81C43.4 81.1 43.5 81.3 43.6 81.4C43.7 81.5 43.8 81.6 43.9 81.6C44 81.7 44.1 81.7 44.2 81.8C44.2 81.8 44.3 81.8 44.4 81.9C44.6 82 44.8 82 45 82ZM30.2 4H59.9L53.8 17H36.3L30.2 4ZM43 73L24.3 42.9L36.2 21H53.8L65.7 42.9L47 73V47.7C49.9 46.8 52 44.2 52 41C52 37.1 48.9 34 45 34C41.1 34 38 37.1 38 41C38 44.2 40.1 46.8 43 47.7V73ZM42 41C42 39.3 43.3 38 45 38C46.7 38 48 39.3 48 41C48 42.6 46.7 44 45 44C43.3 44 42 42.6 42 41ZM88 78H80C78.9 78 78 78.9 78 80V82H63.5C79.1 74.9 90 59.2 90 41C90 39.9 89.1 39 88 39C86.9 39 86 39.9 86 41C86 63.6 67.6 82 45 82C22.4 82 4 63.6 4 41C4 39.9 3.1 39 2 39C0.9 39 0 39.9 0 41C0 59.2 10.9 74.9 26.5 82H12V80C12 78.9 11.1 78 10 78H2C0.9 78 0 78.9 0 80V88C0 89.1 0.9 90 2 90H10C11.1 90 12 89.1 12 88V86H78V88C78 89.1 78.9 90 80 90H88C89.1 90 90 89.1 90 88V80C90 78.9 89.1 78 88 78ZM8 86H4V82H8V86ZM86 86H82V82H86V86Z" fill="white"/>
</svg>
