<svg width="786" height="825" viewBox="0 0 786 825" fill="none" xmlns="http://www.w3.org/2000/svg">
<g clip-path="url(#clip0_1_21)" filter="url(#filter0_d_1_21)">
<path d="M295.828 99.3934C218.496 177.031 180.364 123.083 131.46 198.922C99.8182 247.958 81.2972 314.922 101.766 404.12C157.371 646.345 153.047 621.637 227.503 671.053C301.96 720.469 281.336 801.656 382.702 766.358C484.068 731.059 609.18 812.253 646.721 680.47C684.262 548.686 586.953 431.934 657.845 359.117C728.736 286.299 695.583 61.0312 503.707 53.9687C396.969 50.0404 358.479 36.4847 295.828 99.3934Z" fill="#0071BC"/>
<path d="M280.331 187.572C192.437 240.636 149.102 203.735 93.5179 255.611C57.587 289.131 36.5065 334.915 59.7667 395.877C122.973 561.476 118.058 544.561 202.675 578.363C287.292 612.164 263.849 667.652 379.067 643.52C494.285 619.388 636.483 674.89 679.143 584.8C721.803 494.709 611.205 414.893 691.8 365.111C772.395 315.329 734.692 161.318 516.638 156.498C395.282 153.841 351.539 144.565 280.331 187.572Z" fill="#0071BC"/>
<path d="M229.507 249.062V478.856H576.863L577.215 239.575L229.507 239.223V249.062Z" fill="#0096FA"/>
<path d="M203.491 269.441V499.235H550.846L551.198 259.954L203.491 259.603V269.441Z" fill="#00497A"/>
<path d="M224.234 283.496C224.234 280.585 221.872 278.225 218.96 278.225C216.047 278.225 213.686 280.585 213.686 283.496C213.686 286.406 216.047 288.766 218.96 288.766C221.872 288.766 224.234 286.406 224.234 283.496Z" fill="#2B9FEC"/>
<path d="M240.406 283.496C240.406 280.585 238.045 278.225 235.132 278.225C232.22 278.225 229.859 280.585 229.859 283.496C229.859 286.406 232.22 288.766 235.132 288.766C238.045 288.766 240.406 286.406 240.406 283.496Z" fill="#2B9FEC"/>
<path d="M256.578 283.496C256.578 280.585 254.217 278.225 251.305 278.225C248.392 278.225 246.031 280.585 246.031 283.496C246.031 286.406 248.392 288.766 251.305 288.766C254.217 288.766 256.578 286.406 256.578 283.496Z" fill="#2B9FEC"/>
<g opacity="0.5">
<path d="M223.53 312.659H222.124V384.338H223.53V312.659Z" fill="white"/>
<path d="M229.859 312.659H228.452V384.338H229.859V312.659Z" fill="white"/>
<path d="M235.484 312.659H234.078V384.338H235.484V312.659Z" fill="white"/>
<path d="M241.812 312.659H240.406V384.338H241.812V312.659Z" fill="white"/>
<path d="M247.437 312.659H246.031V384.338H247.437V312.659Z" fill="white"/>
<path d="M253.766 312.659H252.359V384.338H253.766V312.659Z" fill="white"/>
<path d="M259.391 312.659H257.985V384.338H259.391V312.659Z" fill="white"/>
<path d="M265.016 312.659H263.61V384.338H265.016V312.659Z" fill="white"/>
<path d="M270.641 312.659H269.235V384.338H270.641V312.659Z" fill="white"/>
<path d="M276.97 312.659H275.563V384.338H276.97V312.659Z" fill="white"/>
<path d="M282.595 312.659H281.189V384.338H282.595V312.659Z" fill="white"/>
<path d="M288.923 312.659H287.517V384.338H288.923V312.659Z" fill="white"/>
<path d="M294.548 312.659H293.142V384.338H294.548V312.659Z" fill="white"/>
<path d="M294.548 312.659H222.124V314.065H294.548V312.659Z" fill="white"/>
<path d="M294.548 319.687H222.124V321.092H294.548V319.687Z" fill="white"/>
<path d="M294.548 326.714H222.124V328.119H294.548V326.714Z" fill="white"/>
<path d="M294.548 333.741H222.124V335.147H294.548V333.741Z" fill="white"/>
<path d="M294.548 340.769H222.124V342.174H294.548V340.769Z" fill="white"/>
<path d="M294.548 347.796H222.124V349.201H294.548V347.796Z" fill="white"/>
<path d="M294.548 354.823H222.124V356.229H294.548V354.823Z" fill="white"/>
<path d="M294.548 361.851H222.124V363.256H294.548V361.851Z" fill="white"/>
<path d="M294.548 368.878H222.124V370.283H294.548V368.878Z" fill="white"/>
<path d="M294.548 375.905H222.124V377.311H294.548V375.905Z" fill="white"/>
<path d="M294.548 382.933H222.124V384.338H294.548V382.933Z" fill="white"/>
<path d="M312.127 402.609H310.721V474.288H312.127V402.609Z" fill="white"/>
<path d="M318.456 402.609H317.049V474.288H318.456V402.609Z" fill="white"/>
<path d="M324.081 402.609H322.674V474.288H324.081V402.609Z" fill="white"/>
<path d="M330.409 402.609H329.003V474.288H330.409V402.609Z" fill="white"/>
<path d="M336.034 402.609H334.628V474.288H336.034V402.609Z" fill="white"/>
<path d="M342.363 402.609H340.956V474.288H342.363V402.609Z" fill="white"/>
<path d="M347.988 402.609H346.582V474.288H347.988V402.609Z" fill="white"/>
<path d="M353.613 402.609H352.207V474.288H353.613V402.609Z" fill="white"/>
<path d="M359.238 402.609H357.832V474.288H359.238V402.609Z" fill="white"/>
<path d="M365.567 402.609H364.16V474.288H365.567V402.609Z" fill="white"/>
<path d="M371.192 402.609H369.785V474.288H371.192V402.609Z" fill="white"/>
<path d="M377.52 402.609H376.114V474.288H377.52V402.609Z" fill="white"/>
<path d="M383.145 402.609H381.739V474.288H383.145V402.609Z" fill="white"/>
<path d="M383.145 402.609H310.721V404.015H383.145V402.609Z" fill="white"/>
<path d="M383.145 409.636H310.721V411.042H383.145V409.636Z" fill="white"/>
<path d="M383.145 416.664H310.721V418.069H383.145V416.664Z" fill="white"/>
<path d="M383.145 423.691H310.721V425.097H383.145V423.691Z" fill="white"/>
<path d="M383.145 430.719H310.721V432.124H383.145V430.719Z" fill="white"/>
<path d="M383.145 437.746H310.721V439.151H383.145V437.746Z" fill="white"/>
<path d="M383.145 444.773H310.721V446.179H383.145V444.773Z" fill="white"/>
<path d="M383.145 451.801H310.721V453.206H383.145V451.801Z" fill="white"/>
<path d="M383.145 458.828H310.721V460.233H383.145V458.828Z" fill="white"/>
<path d="M383.145 465.855H310.721V467.261H383.145V465.855Z" fill="white"/>
<path d="M383.145 472.883H310.721V474.288H383.145V472.883Z" fill="white"/>
<path d="M391.583 320.389H390.177V392.068H391.583V320.389Z" fill="white"/>
<path d="M397.911 320.389H396.505V392.068H397.911V320.389Z" fill="white"/>
<path d="M403.537 320.389H402.13V392.068H403.537V320.389Z" fill="white"/>
<path d="M409.865 320.389H408.459V392.068H409.865V320.389Z" fill="white"/>
<path d="M415.49 320.389H414.084V392.068H415.49V320.389Z" fill="white"/>
<path d="M421.819 320.389H420.412V392.068H421.819V320.389Z" fill="white"/>
<path d="M427.444 320.389H426.038V392.068H427.444V320.389Z" fill="white"/>
<path d="M433.069 320.389H431.663V392.068H433.069V320.389Z" fill="white"/>
<path d="M438.694 320.389H437.288V392.068H438.694V320.389Z" fill="white"/>
<path d="M445.023 320.389H443.616V392.068H445.023V320.389Z" fill="white"/>
<path d="M450.648 320.389H449.241V392.068H450.648V320.389Z" fill="white"/>
<path d="M456.976 320.389H455.57V392.068H456.976V320.389Z" fill="white"/>
<path d="M462.601 320.389H461.195V392.068H462.601V320.389Z" fill="white"/>
<path d="M462.601 320.389H390.177V321.795H462.601V320.389Z" fill="white"/>
<path d="M462.601 327.417H390.177V328.822H462.601V327.417Z" fill="white"/>
<path d="M462.601 334.444H390.177V335.849H462.601V334.444Z" fill="white"/>
<path d="M462.601 341.471H390.177V342.877H462.601V341.471Z" fill="white"/>
<path d="M462.601 348.499H390.177V349.904H462.601V348.499Z" fill="white"/>
<path d="M462.601 355.526H390.177V356.931H462.601V355.526Z" fill="white"/>
<path d="M462.601 362.553H390.177V363.959H462.601V362.553Z" fill="white"/>
<path d="M462.601 369.581H390.177V370.986H462.601V369.581Z" fill="white"/>
<path d="M462.601 376.608H390.177V378.013H462.601V376.608Z" fill="white"/>
<path d="M462.601 383.635H390.177V385.041H462.601V383.635Z" fill="white"/>
<path d="M462.601 390.663H390.177V392.068H462.601V390.663Z" fill="white"/>
</g>
<path d="M359.941 335.146H256.578V406.825H359.941V335.146Z" fill="#2B9FEC"/>
<path d="M370.489 344.282H267.126V415.961H370.489V344.282Z" fill="#0096FA"/>
<path d="M347.285 354.12H288.22V355.526H347.285V354.12Z" fill="white"/>
<path d="M336.737 357.634H288.22V359.04H336.737V357.634Z" fill="white"/>
<path d="M352.207 360.445H288.22V361.851H352.207V360.445Z" fill="white"/>
<path d="M316.346 369.581H288.22V370.986H316.346V369.581Z" fill="white"/>
<path d="M331.112 373.094H288.22V374.5H331.112V373.094Z" fill="white"/>
<path d="M328.3 375.905H288.22V377.311H328.3V375.905Z" fill="white"/>
<path d="M316.346 385.743H288.22V387.149H316.346V385.743Z" fill="white"/>
<path d="M331.112 389.257H288.22V390.663H331.112V389.257Z" fill="white"/>
<path d="M328.3 392.068H288.22V393.473H328.3V392.068Z" fill="white"/>
<path d="M279.431 362.553C281.955 362.553 284.001 360.508 284.001 357.986C284.001 355.463 281.955 353.418 279.431 353.418C276.907 353.418 274.86 355.463 274.86 357.986C274.86 360.508 276.907 362.553 279.431 362.553Z" fill="white"/>
<path d="M279.431 377.311C281.955 377.311 284.001 375.266 284.001 372.743C284.001 370.22 281.955 368.175 279.431 368.175C276.907 368.175 274.86 370.22 274.86 372.743C274.86 375.266 276.907 377.311 279.431 377.311Z" fill="white"/>
<path d="M280.134 394.176C282.658 394.176 284.704 392.131 284.704 389.608C284.704 387.086 282.658 385.041 280.134 385.041C277.61 385.041 275.563 387.086 275.563 389.608C275.563 392.131 277.61 394.176 280.134 394.176Z" fill="white"/>
<path d="M529.401 344.282H478.071V345.687H529.401V344.282Z" fill="white"/>
<path d="M529.401 352.012H478.071V353.418H529.401V352.012Z" fill="white"/>
<path d="M529.401 359.742H478.071V361.148H529.401V359.742Z" fill="white"/>
<path d="M529.401 367.472H478.071V368.878H529.401V367.472Z" fill="white"/>
<path d="M529.401 375.202H478.071V376.608H529.401V375.202Z" fill="white"/>
<path d="M529.401 382.932H478.071V384.338H529.401V382.932Z" fill="white"/>
<path d="M529.401 390.663H478.071V392.068H529.401V390.663Z" fill="white"/>
<path d="M529.401 398.393H478.071V399.798H529.401V398.393Z" fill="white"/>
<path d="M529.401 406.123H478.071V407.528H529.401V406.123Z" fill="white"/>
<path d="M533.619 294.388H211.577V295.793H533.619V294.388Z" fill="white"/>
<path d="M503.736 335.849C512.473 335.849 519.556 328.77 519.556 320.038C519.556 311.305 512.473 304.226 503.736 304.226C494.998 304.226 487.915 311.305 487.915 320.038C487.915 328.77 494.998 335.849 503.736 335.849Z" fill="white"/>
<path d="M525.182 255.035V240.98C525.182 240.98 526.588 237.467 520.26 234.656C513.931 231.845 502.681 220.601 503.384 201.627C504.087 182.653 521.666 165.788 541.354 167.193C561.042 168.599 575.105 184.059 575.808 205.141C576.511 226.223 557.526 234.656 557.526 234.656C557.526 234.656 554.011 235.359 554.011 238.872V255.035H525.182Z" fill="#2B9FEC"/>
<path d="M494.33 176.18L493.574 177.365L505.429 184.925L506.186 183.74L494.33 176.18Z" fill="#2B9FEC"/>
<path d="M526.513 152.481L525.137 152.773L528.066 166.52L529.441 166.227L526.513 152.481Z" fill="#2B9FEC"/>
<path d="M566.78 158.117L565.59 157.368L558.1 169.264L559.29 170.013L566.78 158.117Z" fill="#2B9FEC"/>
<path d="M590.399 189.586L589.963 188.249L576.591 192.599L577.026 193.936L590.399 189.586Z" fill="#2B9FEC"/>
<path d="M584.944 230.578L585.688 229.385L573.754 221.95L573.01 223.142L584.944 230.578Z" fill="#2B9FEC"/>
<path d="M511.696 248.657L512.886 249.406L520.382 237.515L519.192 236.765L511.696 248.657Z" fill="#2B9FEC"/>
<path d="M488.597 217.289L488.917 218.658L502.612 215.465L502.293 214.096L488.597 217.289Z" fill="#2B9FEC"/>
<path d="M554.362 255.035H524.83C523.471 255.035 522.369 256.136 522.369 257.494C522.369 258.853 523.471 259.954 524.83 259.954H554.362C555.721 259.954 556.823 258.853 556.823 257.494C556.823 256.136 555.721 255.035 554.362 255.035Z" fill="#2B9FEC"/>
<path d="M553.659 264.17H525.533C524.174 264.17 523.072 265.272 523.072 266.63C523.072 267.988 524.174 269.09 525.533 269.09H553.659C555.018 269.09 556.12 267.988 556.12 266.63C556.12 265.272 555.018 264.17 553.659 264.17Z" fill="#2B9FEC"/>
<path d="M554.011 259.954H525.181C524.016 259.954 523.072 260.898 523.072 262.062C523.072 263.227 524.016 264.171 525.181 264.171H554.011C555.176 264.171 556.12 263.227 556.12 262.062C556.12 260.898 555.176 259.954 554.011 259.954Z" fill="white"/>
<path d="M526.588 269.09H552.422C552.422 269.09 551.901 277.522 539.948 277.522C527.994 277.522 528.697 272.603 526.588 269.09Z" fill="white"/>
<path d="M549.461 356.931H632.131C632.495 356.931 632.856 357.008 633.189 357.156C633.522 357.305 633.82 357.521 634.063 357.793C634.307 358.064 634.49 358.383 634.602 358.73C634.714 359.077 634.751 359.443 634.711 359.806L628.953 412.244C628.882 412.878 628.579 413.465 628.103 413.891C627.628 414.318 627.011 414.554 626.372 414.556H543.703C543.338 414.556 542.978 414.479 542.645 414.331C542.312 414.182 542.014 413.965 541.77 413.694C541.527 413.423 541.343 413.104 541.232 412.757C541.12 412.41 541.083 412.044 541.122 411.681L546.881 359.243C546.95 358.608 547.252 358.02 547.728 357.594C548.205 357.167 548.822 356.931 549.461 356.931V356.931Z" fill="#0096FA"/>
<path d="M543.836 356.931H626.506C626.87 356.931 627.231 357.008 627.564 357.156C627.896 357.305 628.194 357.521 628.438 357.793C628.681 358.064 628.865 358.383 628.977 358.73C629.088 359.077 629.126 359.443 629.086 359.806L623.327 412.244C623.256 412.878 622.954 413.465 622.478 413.891C622.002 414.318 621.386 414.554 620.747 414.556H538.077C537.713 414.556 537.352 414.479 537.019 414.331C536.686 414.182 536.389 413.965 536.145 413.694C535.902 413.423 535.718 413.104 535.606 412.757C535.495 412.41 535.457 412.044 535.497 411.681L541.256 359.243C541.325 358.608 541.627 358.02 542.103 357.594C542.579 357.167 543.197 356.931 543.836 356.931Z" fill="white"/>
<path d="M542.76 357.163L576.666 388.554L627.588 357.163H542.76Z" fill="#2B9FEC"/>
<path d="M484.364 570.9L384.327 570.562C381.711 570.562 379.594 570.436 379.602 567.822L379.651 554.47C379.651 551.884 381.76 552.263 384.334 552.235L483.724 551.237C484.969 551.308 487.057 550.443 490.495 551.94C495.122 553.922 498.441 566.072 488.583 570.253C487.206 570.63 485.79 570.847 484.364 570.9Z" fill="#2B9FEC"/>
<path d="M381.247 567.808L408.016 567.906C408.453 567.906 408.872 567.733 409.182 567.425C409.491 567.117 409.666 566.698 409.668 566.262V555.678C409.668 555.242 409.495 554.823 409.187 554.513C408.878 554.204 408.46 554.029 408.023 554.027L381.261 553.936C380.712 553.877 380.157 553.903 379.616 554.013L379.602 567.751C380.148 567.808 380.698 567.826 381.247 567.808V567.808Z" fill="white"/>
<path d="M390.149 532.685H490.179C492.795 532.685 494.918 532.797 494.918 535.412V548.764C494.918 551.35 492.809 550.977 490.242 551.012L390.852 552.362C389.614 552.305 387.519 551.792 384.299 550.696C379.531 549.08 376.086 537.604 385.93 533.388C387.304 532.992 388.72 532.756 390.149 532.685Z" fill="#00497A"/>
<path d="M493.273 535.426H466.511C466.074 535.426 465.654 535.599 465.345 535.907C465.035 536.215 464.86 536.633 464.858 537.07V547.66C464.86 548.097 465.035 548.515 465.345 548.824C465.654 549.132 466.074 549.305 466.511 549.305H493.273C493.822 549.359 494.377 549.331 494.918 549.22V535.461C494.371 535.408 493.821 535.396 493.273 535.426Z" fill="#B0C0F4"/>
<path d="M381.683 516.086H481.713C484.336 516.086 486.452 516.192 486.452 518.806V532.158C486.452 534.751 484.343 534.372 481.776 534.407L382.386 535.756C381.148 535.693 379.053 535.18 375.833 534.083C371.065 532.474 367.62 520.999 377.464 516.782C378.838 516.385 380.254 516.152 381.683 516.086V516.086Z" fill="#2B9FEC"/>
<path d="M484.807 518.806H458.045C457.828 518.806 457.614 518.849 457.414 518.932C457.214 519.015 457.032 519.137 456.879 519.29C456.726 519.444 456.605 519.626 456.523 519.826C456.44 520.026 456.399 520.241 456.399 520.457V531.041C456.399 531.257 456.44 531.471 456.523 531.671C456.605 531.871 456.726 532.053 456.879 532.205C457.032 532.358 457.214 532.479 457.414 532.562C457.614 532.644 457.829 532.686 458.045 532.685H484.807C485.356 532.736 485.91 532.71 486.452 532.608V518.855C485.906 518.801 485.356 518.785 484.807 518.806V518.806Z" fill="white"/>
<path d="M197.605 538.462C223.674 538.462 244.808 517.341 244.808 491.287C244.808 465.233 223.674 444.113 197.605 444.113C171.536 444.113 150.403 465.233 150.403 491.287C150.403 517.341 171.536 538.462 197.605 538.462Z" stroke="#0096FA" stroke-width="1.17342" stroke-miterlimit="10" stroke-dasharray="3.44 3.44"/>
<path d="M203.322 534.962H191.882C190.437 534.962 189.266 536.132 189.266 537.576C189.266 539.02 190.437 540.19 191.882 540.19H203.322C204.766 540.19 205.938 539.02 205.938 537.576C205.938 536.132 204.766 534.962 203.322 534.962Z" fill="#0096FA"/>
<path d="M197.851 532.854C220.957 532.854 239.689 514.134 239.689 491.041C239.689 467.949 220.957 449.229 197.851 449.229C174.745 449.229 156.014 467.949 156.014 491.041C156.014 514.134 174.745 532.854 197.851 532.854Z" fill="#0096FA"/>
<path d="M199.539 538.462H196.15V739.556H199.539V538.462Z" fill="#0096FA"/>
<path d="M245.948 626.258C260.106 612.108 260.106 589.167 245.948 575.017C231.79 560.867 208.835 560.867 194.677 575.017C180.518 589.167 180.518 612.108 194.677 626.258C208.835 640.408 231.79 640.408 245.948 626.258Z" stroke="#0096FA" stroke-width="1.17342" stroke-miterlimit="10" stroke-dasharray="3.39 3.39"/>
<path d="M224.817 634.188H215.81C214.761 634.188 213.911 635.037 213.911 636.085V636.303C213.911 637.351 214.761 638.201 215.81 638.201H224.817C225.866 638.201 226.716 637.351 226.716 636.303V636.085C226.716 635.037 225.866 634.188 224.817 634.188Z" fill="#0096FA"/>
<path d="M226.181 739.556H191.642C190.594 739.556 189.744 740.405 189.744 741.453V741.671C189.744 742.719 190.594 743.568 191.642 743.568H226.181C227.23 743.568 228.08 742.719 228.08 741.671V741.453C228.08 740.405 227.23 739.556 226.181 739.556Z" fill="#0096FA"/>
<path d="M235.083 743.069H182.03C180.982 743.069 180.132 743.919 180.132 744.967V745.185C180.132 746.233 180.982 747.082 182.03 747.082H235.083C236.132 747.082 236.982 746.233 236.982 745.185V744.967C236.982 743.919 236.132 743.069 235.083 743.069Z" fill="#0096FA"/>
<path d="M220.507 632.565C238.254 632.565 252.641 618.186 252.641 600.45C252.641 582.713 238.254 568.335 220.507 568.335C202.76 568.335 188.373 582.713 188.373 600.45C188.373 618.186 202.76 632.565 220.507 632.565Z" fill="#0096FA"/>
<path d="M222.089 538.462H218.7V739.556H222.089V538.462Z" fill="#0096FA"/>
<path d="M463.501 663.878C462.811 664.685 462.301 665.631 462.006 666.651C461.711 667.671 461.637 668.742 461.79 669.793C461.944 670.844 462.32 671.85 462.894 672.744C463.468 673.637 464.226 674.398 465.118 674.974C488.196 689.893 565.781 733.835 629.656 697.082C705.596 653.372 737.779 537.428 735.958 526.501C734.137 515.573 696.476 513.451 633.298 515.728C570.12 518.005 641.173 628.489 568.889 638.805C496.606 649.121 515.45 619.381 492.351 636.985C481.828 644.925 472.159 653.938 463.501 663.878V663.878Z" fill="#2B9FEC"/>
<path d="M505.458 631.581C505.458 631.581 600.798 656.717 603.555 601.729C607.373 525.074 623.285 531.399 622.09 580.302C620.894 629.205 621.633 633.007 598.886 642.67C579.289 650.997 562.856 652.466 536.502 647.167C514.958 642.839 505.458 631.581 505.458 631.581Z" fill="#FF914D"/>
<path d="M494.118 684.795L490.047 681.659L467.053 711.467L471.124 714.604L494.118 684.795Z" fill="#2B9FEC"/>
<path d="M467.144 723.224C471.112 723.224 474.33 720.009 474.33 716.042C474.33 712.076 471.112 708.86 467.144 708.86C463.175 708.86 459.957 712.076 459.957 716.042C459.957 720.009 463.175 723.224 467.144 723.224Z" fill="#FF914D"/>
<path d="M543.294 703.092L538.843 700.524L520.013 733.12L524.464 735.688L543.294 703.092Z" fill="#2B9FEC"/>
<path d="M521.082 744.938C525.051 744.938 528.268 741.723 528.268 737.757C528.268 733.79 525.051 730.575 521.082 730.575C517.113 730.575 513.896 733.79 513.896 737.757C513.896 741.723 517.113 744.938 521.082 744.938Z" fill="#FF914D"/>
<path d="M628.628 693.538L624.676 696.823L653.96 732.012L657.912 728.728L628.628 693.538Z" fill="#2B9FEC"/>
<path d="M657.901 740.898C661.87 740.898 665.087 737.682 665.087 733.716C665.087 729.75 661.87 726.534 657.901 726.534C653.932 726.534 650.715 729.75 650.715 733.716C650.715 737.682 653.932 740.898 657.901 740.898Z" fill="#FF914D"/>
<path d="M573.984 677.026L570.032 680.311L599.316 715.5L603.268 712.215L573.984 677.026Z" fill="#2B9FEC"/>
<path d="M603.259 724.391C607.228 724.391 610.446 721.175 610.446 717.209C610.446 713.242 607.228 710.027 603.259 710.027C599.291 710.027 596.073 713.242 596.073 717.209C596.073 721.175 599.291 724.391 603.259 724.391Z" fill="#FF914D"/>
</g>
<defs>
<filter id="filter0_d_1_21" x="0" y="0" width="786" height="825" filterUnits="userSpaceOnUse" color-interpolation-filters="sRGB">
<feFlood flood-opacity="0" result="BackgroundImageFix"/>
<feColorMatrix in="SourceAlpha" type="matrix" values="0 0 0 0 0 0 0 0 0 0 0 0 0 0 0 0 0 0 127 0" result="hardAlpha"/>
<feOffset/>
<feGaussianBlur stdDeviation="25"/>
<feColorMatrix type="matrix" values="0 0 0 0 0 0 0 0 0 0.443137 0 0 0 0 0.737255 0 0 0 0.5 0"/>
<feBlend mode="normal" in2="BackgroundImageFix" result="effect1_dropShadow_1_21"/>
<feBlend mode="normal" in="SourceGraphic" in2="effect1_dropShadow_1_21" result="shape"/>
</filter>
<clipPath id="clip0_1_21">
<rect width="686" height="725" fill="white" transform="translate(50 50)"/>
</clipPath>
</defs>
</svg>
