<svg width="287" height="30" viewBox="0 0 287 30" fill="none" xmlns="http://www.w3.org/2000/svg">
<path d="M26.2264 14.76C26.2264 17.5067 25.6264 19.96 24.4264 22.12C23.2264 24.2533 21.5197 25.9333 19.3064 27.16C17.0931 28.3867 14.4931 29 11.5064 29H0.226406V0.68H11.5064C14.4931 0.68 17.0931 1.28 19.3064 2.48C21.5464 3.65333 23.2531 5.30667 24.4264 7.44C25.6264 9.57333 26.2264 12.0133 26.2264 14.76ZM10.7864 21.96C13.1064 21.96 14.9331 21.3333 16.2664 20.08C17.5997 18.8267 18.2664 17.0533 18.2664 14.76C18.2664 12.4933 17.5997 10.7333 16.2664 9.48C14.9331 8.2 13.1064 7.56 10.7864 7.56H8.10641V21.96H10.7864ZM37.6377 0.68V29H29.7577V0.68H37.6377ZM55.3842 0.439998C59.0109 0.439998 61.9842 1.32 64.3042 3.08C66.6242 4.84 68.0242 7.21333 68.5042 10.2H60.2242C59.7976 9.42667 59.1709 8.81333 58.3442 8.36C57.5176 7.90666 56.5442 7.68 55.4242 7.68C53.5042 7.68 51.9709 8.33333 50.8242 9.64C49.7042 10.92 49.1442 12.64 49.1442 14.8C49.1442 17.2533 49.7442 19.12 50.9442 20.4C52.1709 21.6533 53.9576 22.28 56.3042 22.28C57.6376 22.28 58.8109 21.96 59.8242 21.32C60.8376 20.68 61.6376 19.7333 62.2242 18.48H54.3842V12.88H68.7442V20.68C67.7309 23.0267 66.1042 25.04 63.8642 26.72C61.6509 28.3733 58.8509 29.2 55.4642 29.2C52.5842 29.2 50.0642 28.6 47.9042 27.4C45.7442 26.1733 44.0776 24.4667 42.9042 22.28C41.7576 20.0933 41.1842 17.6 41.1842 14.8C41.1842 12 41.7576 9.52 42.9042 7.36C44.0776 5.17333 45.7309 3.48 47.8642 2.28C49.9976 1.05333 52.5042 0.439998 55.3842 0.439998ZM80.1377 0.68V29H72.2577V0.68H80.1377ZM105.804 0.68V6.96H98.1642V29H90.3242V6.96H82.7642V0.68H105.804ZM126.27 24.28H116.23L114.67 29H106.39L116.75 0.799998H125.83L136.15 29H127.83L126.27 24.28ZM124.31 18.36L121.27 9.16L118.19 18.36H124.31ZM146.349 23.04H155.189V29H138.469V0.68H146.349V23.04Z" fill="white"/>
<path d="M191.076 0.799998V29H183.276V13L178.036 29H171.276L166.036 13V29H158.156V0.799998H167.796L174.756 19.12L181.516 0.799998H191.076ZM203.302 6.96V11.64H212.462V17.6H203.302V22.72H213.662V29H195.422V0.68H213.662V6.96H203.302ZM243.258 14.76C243.258 17.5067 242.658 19.96 241.458 22.12C240.258 24.2533 238.551 25.9333 236.338 27.16C234.124 28.3867 231.524 29 228.538 29H217.258V0.68H228.538C231.524 0.68 234.124 1.28 236.338 2.48C238.578 3.65333 240.284 5.30667 241.458 7.44C242.658 9.57333 243.258 12.0133 243.258 14.76ZM227.818 21.96C230.138 21.96 231.964 21.3333 233.298 20.08C234.631 18.8267 235.298 17.0533 235.298 14.76C235.298 12.4933 234.631 10.7333 233.298 9.48C231.964 8.2 230.138 7.56 227.818 7.56H225.138V21.96H227.818ZM254.669 0.68V29H246.789V0.68H254.669ZM276.895 24.28H266.855L265.295 29H257.015L267.375 0.799998H276.455L286.775 29H278.455L276.895 24.28ZM274.935 18.36L271.895 9.16L268.815 18.36H274.935Z" fill="#FF914D"/>
</svg>
