<svg width="90" height="90" viewBox="0 0 90 90" fill="none" xmlns="http://www.w3.org/2000/svg">
<path d="M88 4H47V2C47 0.9 46.1 0 45 0C43.9 0 43 0.9 43 2V4H1.99999C0.899992 4 -7.62939e-06 4.9 -7.62939e-06 6V58C-7.62939e-06 59.1 0.899992 60 1.99999 60H12H30H32.2L23.1 87.4C22.8 88.4 23.3 89.6 24.4 89.9C24.6 90 24.8 90 25 90C25.8 90 26.6 89.5 26.9 88.6L36.4 60H43V88C43 89.1 43.9 90 45 90C46.1 90 47 89.1 47 88V60H53.6L63.1 88.6C63.4 89.4 64.2 90 65 90C65.2 90 65.4 90 65.6 89.9C66.6 89.6 67.2 88.4 66.9 87.4L57.8 60H88C89.1 60 90 59.1 90 58V6C90 4.9 89.1 4 88 4ZM14 56V52H28V56H14ZM32 56V50C32 48.9 31.1 48 30 48H12C10.9 48 9.99999 48.9 9.99999 50V56H3.99999V8H86V56H32ZM80 18V48C80 49.1 79.1 50 78 50C76.9 50 76 49.1 76 48V18C76 16.9 76.9 16 78 16C79.1 16 80 16.9 80 18ZM72 26V48C72 49.1 71.1 50 70 50C68.9 50 68 49.1 68 48V26C68 24.9 68.9 24 70 24C71.1 24 72 24.9 72 26ZM64 34V48C64 49.1 63.1 50 62 50C60.9 50 60 49.1 60 48V34C60 32.9 60.9 32 62 32C63.1 32 64 32.9 64 34ZM67.4 15.4L47.4 35.4C47.3 35.5 47.2 35.6 47 35.7C47 35.7 46.9 35.7 46.9 35.8C46.8 35.9 46.7 35.9 46.6 35.9H46.5C46.3 36 46.2 36 46 36C45.9 36 45.7 36 45.6 36H45.5C45.4 36 45.3 35.9 45.2 35.9C45.2 35.9 45.2 35.9 45.1 35.9L29.3 27.5L13.3 41.6C12.9 41.8 12.5 42 12 42C11.4 42 10.9 41.8 10.5 41.3C9.79999 40.5 9.79999 39.2 10.7 38.5L27.7 23.5C27.8 23.4 27.8 23.4 27.9 23.4L28 23.3C28.1 23.3 28.1 23.2 28.2 23.2C28.3 23.2 28.3 23.2 28.4 23.1C28.5 23.1 28.5 23.1 28.6 23.1C28.7 23.1 28.7 23.1 28.8 23.1C28.9 23.1 28.9 23.1 29 23.1C29.1 23.1 29.1 23.1 29.2 23.1C29.3 23.1 29.3 23.1 29.4 23.1C29.5 23.1 29.5 23.1 29.6 23.1C29.7 23.1 29.7 23.1 29.7 23.2C29.8 23.2 29.9 23.3 29.9 23.3L45.6 31.6L64.6 12.6C65.4 11.8 66.6 11.8 67.4 12.6C68.2 13.4 68.2 14.6 67.4 15.4Z" fill="#0071BC"/>
</svg>
