<svg width="84" height="90" viewBox="0 0 84 90" fill="none" xmlns="http://www.w3.org/2000/svg">
<path d="M54 62C52.9 62 52 62.9 52 64V70H3.99999V14H52V20C52 21.1 52.9 22 54 22C55.1 22 56 21.1 56 20V8C56 3.59 52.41 0 48 0H7.99999C3.58999 0 -7.62939e-06 3.59 -7.62939e-06 8V82C-7.62939e-06 86.41 3.58999 90 7.99999 90H48C52.41 90 56 86.41 56 82V64C56 62.9 55.1 62 54 62ZM3.99999 8C3.99999 5.79 5.78999 4 7.99999 4H48C50.21 4 52 5.79 52 8V10H3.99999V8ZM52 82C52 84.21 50.21 86 48 86H7.99999C5.78999 86 3.99999 84.21 3.99999 82V74H52V82ZM26.58 81.41C26.21 81.03 26 80.53 26 80C26 79.87 26.01 79.74 26.04 79.61C26.07 79.48 26.1 79.35 26.15 79.23C26.2 79.11 26.27 79 26.34 78.89C26.41 78.78 26.49 78.68 26.58 78.59C26.68 78.49 26.78 78.41 26.89 78.34C27 78.27 27.11 78.2 27.23 78.15C27.36 78.1 27.48 78.06 27.61 78.04C27.87 77.99 28.13 77.99 28.39 78.04C28.52 78.06 28.64 78.1 28.77 78.15C28.89 78.2 29 78.27 29.11 78.34C29.22 78.41 29.32 78.49 29.42 78.59C29.51 78.68 29.59 78.78 29.66 78.89C29.73 79 29.8 79.11 29.85 79.23C29.9 79.35 29.93 79.48 29.96 79.61C29.99 79.74 30 79.87 30 80C30 80.27 29.95 80.52 29.85 80.77C29.75 81.01 29.6 81.23 29.42 81.41C29.04 81.79 28.53 82 28 82C27.73 82 27.48 81.95 27.23 81.85C26.99 81.75 26.77 81.6 26.58 81.41ZM70 27H80C82.21 27 84 25.21 84 23V13C84 10.79 82.21 9 80 9H70C67.79 9 66 10.79 66 13V20.35L35.81 35.77C33.97 33.47 31.16 32 28 32C22.49 32 18 36.49 18 42C18 47.51 22.49 52 28 52C31.16 52 33.97 50.52 35.81 48.23L66 63.65V71C66 73.21 67.79 75 70 75H80C82.21 75 84 73.21 84 71V61C84 58.79 82.21 57 80 57H70C68.39 57 67 57.97 66.37 59.35L37.63 44.67C37.69 44.45 37.75 44.23 37.8 44H66V47C66 49.21 67.79 51 70 51H80C82.21 51 84 49.21 84 47V37C84 34.79 82.21 33 80 33H70C67.79 33 66 34.79 66 37V40H37.8C37.75 39.77 37.69 39.55 37.63 39.33L66.37 24.65C67 26.03 68.39 27 70 27ZM70 13H80V23H70V13ZM28 48C24.69 48 22 45.31 22 42C22 38.69 24.69 36 28 36C31.31 36 34 38.69 34 42C34 45.31 31.31 48 28 48ZM70 61H80V71H70V61ZM70 37H80V47H70V37Z" fill="#0071BC"/>
</svg>
