<svg width="90" height="91" viewBox="0 0 90 91" fill="none" xmlns="http://www.w3.org/2000/svg">
<path d="M88 0.803711H1.99997C0.899969 0.803711 -3.05176e-05 1.70371 -3.05176e-05 2.80371V88.8037C-3.05176e-05 89.9037 0.899969 90.8037 1.99997 90.8037H88C89.1 90.8037 90 89.9037 90 88.8037V2.80371C90 1.70371 89.1 0.803711 88 0.803711ZM3.99997 4.80371H54V12.8037H3.99997V4.80371ZM86 86.8037H3.99997V16.8037H86V86.8037ZM86 12.8037H58V4.80371H86V12.8037ZM78 9.20371C78 9.10371 78 8.90371 78 8.80371C78 8.30371 78.2 7.80371 78.6 7.40371C78.7 7.30371 78.8 7.20371 78.9 7.20371C79 7.20371 79.1 7.10371 79.2 7.00371C79.3 7.00371 79.4 6.90371 79.6 6.90371C80.3 6.80371 80.9 7.00371 81.4 7.40371C81.8 7.80371 82 8.30371 82 8.80371C82 9.30371 81.8 9.80371 81.4 10.2037C81 10.6037 80.5 10.8037 80 10.8037C79.9 10.8037 79.7 10.8037 79.6 10.8037C79.5 10.8037 79.3 10.7037 79.2 10.7037C79.1 10.7037 79 10.6037 78.9 10.5037C78.8 10.4037 78.7 10.4037 78.6 10.3037C78.5 10.2037 78.4 10.1037 78.4 10.0037C78.3 9.90371 78.3 9.80371 78.2 9.70371C78.1 9.40371 78.1 9.30371 78 9.20371ZM70.6 10.2037C70.2 9.80371 70 9.30371 70 8.80371C70 8.30371 70.2 7.80371 70.6 7.40371C71.1 6.90371 71.7 6.70371 72.4 6.90371C72.5 6.90371 72.6 7.00371 72.8 7.00371C72.9 7.10371 73 7.10371 73.1 7.20371C73.2 7.30371 73.3 7.40371 73.4 7.40371C73.8 7.80371 74 8.30371 74 8.80371C74 9.30371 73.8 9.80371 73.4 10.2037C73.3 10.3037 73.2 10.4037 73.1 10.4037C73 10.4037 72.9 10.5037 72.8 10.6037C72.7 10.6037 72.6 10.7037 72.4 10.7037C72.3 10.7037 72.1 10.7037 72 10.7037C71.5 10.8037 71 10.6037 70.6 10.2037ZM62.6 10.2037C62.2 9.80371 62 9.30371 62 8.80371C62 8.70371 62 8.50371 62 8.40371C62 8.30371 62.1 8.20371 62.1 8.00371C62.1 7.90371 62.2 7.80371 62.3 7.70371C62.4 7.60371 62.4 7.50371 62.5 7.40371C62.6 7.30371 62.7 7.20371 62.8 7.20371C62.9 7.20371 63 7.10371 63.1 7.00371C63.2 7.00371 63.3 6.90371 63.5 6.90371C63.8 6.90371 64 6.90371 64.3 6.90371C64.4 6.90371 64.5 7.00371 64.7 7.00371C64.8 7.10371 64.9 7.10371 65 7.20371C65.1 7.30371 65.2 7.40371 65.3 7.40371C65.8 7.80371 66 8.30371 66 8.80371C66 9.30371 65.8 9.80371 65.4 10.2037C65.3 10.3037 65.2 10.4037 65.1 10.4037C65 10.4037 64.9 10.5037 64.8 10.6037C64.7 10.6037 64.6 10.7037 64.4 10.7037C64.3 10.7037 64.1 10.7037 64 10.7037C63.5 10.8037 63 10.6037 62.6 10.2037ZM25.4 71.6037C26.4 72.6037 27.6 73.1037 28.9 73.1037C30.3 73.1037 31.5 72.6037 32.5 71.6037C34.4 69.6037 34.4 66.4037 32.5 64.5037L19 50.8037L32.5 37.1037C34.4 35.1037 34.4 31.9037 32.5 30.0037C31.6 29.0037 30.3 28.5037 29 28.5037C27.7 28.5037 26.4 29.0037 25.4 30.0037L8.39997 47.3037C6.49997 49.3037 6.49997 52.5037 8.39997 54.4037L25.4 71.6037ZM11.3 50.0037L28.3 32.7037C28.5 32.4037 28.8 32.4037 29 32.4037C29.2 32.4037 29.4 32.4037 29.7 32.7037C30.1 33.1037 30.1 33.8037 29.7 34.2037L14.8 49.4037C14 50.2037 14 51.4037 14.8 52.2037L29.7 67.3037C30.1 67.7037 30.1 68.4037 29.7 68.8037C29.5 69.1037 29.2 69.1037 29 69.1037C28.9 69.1037 28.6 69.1037 28.3 68.8037L11.3 51.5037C10.9 51.1037 10.9 50.4037 11.3 50.0037ZM57.5 71.6037C58.4 72.6037 59.7 73.1037 61 73.1037C62.3 73.1037 63.6 72.6037 64.6 71.6037L81.6 54.3037C83.5 52.3037 83.5 49.1037 81.6 47.2037L64.6 29.9037C63.6 28.9037 62.4 28.4037 61 28.4037C59.7 28.4037 58.4 28.9037 57.5 29.9037C55.6 31.9037 55.6 35.1037 57.5 37.0037L71 50.8037L57.5 64.5037C55.5 66.5037 55.5 69.7037 57.5 71.6037ZM60.3 67.3037L75.2 52.2037C76 51.4037 76 50.2037 75.2 49.4037L60.3 34.2037C59.9 33.8037 59.9 33.1037 60.3 32.7037C60.5 32.4037 60.8 32.4037 61 32.4037C61.2 32.4037 61.5 32.4037 61.7 32.7037L78.7 50.0037C79.1 50.4037 79.1 51.1037 78.7 51.5037L61.7 68.8037C61.5 69.1037 61.2 69.1037 61 69.1037C60.8 69.1037 60.6 69.1037 60.3 68.8037C59.9 68.4037 59.9 67.7037 60.3 67.3037ZM39.9 75.7037C40.3 75.8037 40.6 75.8037 41 75.8037C41.9 75.8037 42.9 75.5037 43.7 75.0037C44.8 74.3037 45.6 73.1037 45.9 71.8037L53.9 33.9037C54.5 31.2037 52.8 28.5037 50.1 27.9037C48.8 27.6037 47.5 27.9037 46.3 28.6037C45.2 29.3037 44.4 30.5037 44.1 31.8037L36.1 69.7037C35.5 72.4037 37.2 75.1037 39.9 75.7037ZM40 70.5037L48 32.6037C48.1 32.2037 48.3 32.0037 48.5 31.9037C48.6 31.8037 48.8 31.7037 49 31.7037C49.1 31.7037 49.1 31.7037 49.2 31.7037C49.7 31.8037 50.1 32.4037 50 33.0037L42 70.9037C41.9 71.3037 41.7 71.5037 41.5 71.6037C41.4 71.7037 41.1 71.8037 40.8 71.7037C40.3 71.6037 40 71.2037 40 70.7037C40 70.7037 40 70.6037 40 70.5037Z" fill="#0071BC"/>
</svg>
